<svg xmlns="http://www.w3.org/2000/svg" version="1.1" xmlns:xlink="http://www.w3.org/1999/xlink" xmlns:svgjs="http://svgjs.dev/svgjs" width="1500" height="1500" viewBox="0 0 1500 1500"><rect width="1500" height="1500" fill="#ffffff"></rect><g transform="matrix(0.6666666666666666,0,0,0.6666666666666666,249.39393939393938,445.4220618149234)"><svg viewBox="0 0 396 241" data-background-color="#ffffff" preserveAspectRatio="xMidYMid meet" height="912" width="1500" xmlns="http://www.w3.org/2000/svg" xmlns:xlink="http://www.w3.org/1999/xlink"><g id="tight-bounds" transform="matrix(1,0,0,1,0.2400000000000091,0.22908405033462031)"><svg viewBox="0 0 395.52 240.54183189933076" height="240.54183189933076" width="395.52"><g><svg viewBox="0 0 395.52 240.54183189933076" height="240.54183189933076" width="395.52"><g transform="matrix(1,0,0,1,0,178.1162231442008)"><svg viewBox="0 0 395.52 62.42560875512994" height="62.42560875512994" width="395.52"><g id="textblocktransform"><svg viewBox="0 0 395.52 62.42560875512994" height="62.42560875512994" width="395.52" id="textblock"><g><svg viewBox="0 0 395.52 62.42560875512994" height="62.42560875512994" width="395.52"><g transform="matrix(1,0,0,1,0,0)"><svg width="395.52" viewBox="0.4 -34.5 292.37 46.15" height="62.42560875512994" data-palette-color="#5d6420"><path d="M34.95-1.6L34.95-1.6 35-0.7 34.7 0 27.25 0 26.7-1.05Q26.8-4.7 26.88-8.88 26.95-13.05 26.95-16.7L26.95-16.7Q26.95-16.9 26.83-17.1 26.7-17.3 26.35-17.3L26.35-17.3 9.2-17.3Q8.55-17.3 8.55-16.7L8.55-16.7Q8.55-15 8.53-12.98 8.5-10.95 8.5-8.9L8.5-8.9Q8.5-6.75 8.55-4.98 8.6-3.2 8.8-1.3L8.8-1.3 4.2 0.1 3.9-0.15Q4.3-4.4 4.35-9.1 4.4-13.8 4.4-18.35L4.4-18.35Q4.4-21.45 4.38-24.58 4.35-27.7 4.1-30.8L4.1-30.8Q4.05-31.5 3.73-31.75 3.4-32 2.65-32.23 1.9-32.45 0.45-32.95L0.45-32.95 0.4-33.9 0.75-34.25 8.85-34.25 9.1-34Q8.8-32.3 8.65-29.88 8.5-27.45 8.47-24.8 8.45-22.15 8.45-19.85L8.45-19.85Q8.45-19.65 8.58-19.45 8.7-19.25 9.05-19.25L9.05-19.25 26.35-19.25Q26.75-19.25 26.85-19.45 26.95-19.65 26.95-19.85L26.95-19.85Q26.95-23.1 26.88-26.78 26.8-30.45 26.8-33.65L26.8-33.65 31.2-34.5 31.45-34.2Q31.1-29.65 31-25.15 30.9-20.65 30.9-16.1L30.9-16.1Q30.9-13.05 30.95-10.03 31-7 31.1-3.95L31.1-3.95Q31.1-3.3 31.63-2.83 32.15-2.35 32.88-2.1 33.6-1.85 34.2-1.73 34.8-1.6 34.95-1.6ZM45.6-31.25L45.6-31.25Q45.55-30 44.67-29.23 43.8-28.45 42.6-28.45L42.6-28.45Q41.4-28.45 40.55-29.3 39.7-30.15 39.7-31.35L39.7-31.35Q39.7-32.65 40.75-33.4 41.8-34.15 42.9-34.15L42.9-34.15Q44.2-34.15 44.9-33.27 45.6-32.4 45.6-31.25ZM44.9-19.6L44.9-19.6 44.5-9.1Q44.5-6.35 44.95-4.8 45.4-3.25 46.7-3.25L46.7-3.25Q48.15-3.25 49.22-3.93 50.3-4.6 51.3-5.5L51.3-5.5 51.95-5 51.95-4.45Q51.1-3.35 49.97-2.23 48.85-1.1 47.57-0.35 46.3 0.4 44.9 0.4L44.9 0.4Q43.85 0.4 42.92 0.03 42-0.35 41.45-1.55 40.9-2.75 40.9-5.2L40.9-5.2 41.2-16.25Q41.2-18.2 40.82-19.35 40.45-20.5 39.45-20.5L39.45-20.5Q38.65-20.5 37.5-19.98 36.35-19.45 35.45-18.9L35.45-18.9 34.8-19.8Q36.5-21.15 38.42-22.35 40.35-23.55 41.8-23.55L41.8-23.55Q43.5-23.55 44.2-22.4 44.9-21.25 44.9-19.6ZM68.55-19.15L68.55-19.15 65.8-17.3 65.2-17.65Q65.1-19.3 64.37-20.43 63.65-21.55 61.95-21.55L61.95-21.55Q60.2-21.55 59.02-20.4 57.85-19.25 57.85-17.5L57.85-17.5Q57.85-16 59.22-14.93 60.6-13.85 63.35-12.7L63.35-12.7Q66.25-11.45 67.67-10.05 69.1-8.65 69.1-6.9L69.1-6.9Q69.1-4.35 67.67-2.63 66.25-0.9 64.07-0.03 61.9 0.85 59.7 0.85L59.7 0.85Q57.45 0.85 55.52-0.05 53.6-0.95 52.35-3.3L52.35-3.3 54.8-6.85 55.5-6.8Q55.65-4.5 57.25-2.78 58.85-1.05 61.2-1.05L61.2-1.05Q62.8-1.05 64.12-2.18 65.45-3.3 65.45-4.85L65.45-4.85Q65.45-6.15 64.7-7.05 63.95-7.95 62.82-8.6 61.7-9.25 60.5-9.75L60.5-9.75Q58.95-10.4 57.5-11.25 56.05-12.1 55.15-13.3 54.25-14.5 54.25-16.15L54.25-16.15Q54.25-18.4 55.55-20 56.85-21.6 58.85-22.45 60.85-23.3 62.9-23.3L62.9-23.3Q64.2-23.3 65.47-22.9 66.75-22.5 67.62-21.6 68.5-20.7 68.55-19.15ZM76.44-29.1L76.44-29.1 80.64-30.55 80.99-30.3Q80.79-28.15 80.64-26.18 80.49-24.2 80.44-22L80.44-22 80.74-21.75 87.14-21.75 87.39-21.55 86.99-20.25 86.69-20 80.74-20 80.44-19.7 80.44-10.25Q80.44-8.5 80.67-6.75 80.89-5 81.67-3.88 82.44-2.75 83.99-2.75L83.99-2.75Q84.94-2.75 86.19-3.43 87.44-4.1 88.54-4.8L88.54-4.8 89.14-4.7 89.49-3.95Q87.79-2.35 85.64-0.95 83.49 0.45 81.29 0.45L81.29 0.45Q80.44 0.45 79.42 0.13 78.39-0.2 77.69-1.1L77.69-1.1Q77.19-1.8 76.94-2.6 76.69-3.4 76.62-5.1 76.54-6.8 76.54-10.15L76.54-10.15 76.54-19.65 76.24-20 70.64-20 70.39-20.25 70.74-21.45 71.04-21.75 76.24-21.75 76.54-22.05Q76.54-23.95 76.54-26.05 76.54-28.15 76.44-29.1ZM111.19-2.95L111.19-2.95Q109.44-0.95 106.92-0.13 104.39 0.7 101.74 0.7L101.74 0.7Q98.29 0.7 96.22-0.83 94.14-2.35 93.19-4.75 92.24-7.15 92.04-9.8L92.04-9.8Q92.04-12.4 92.52-15 92.99-17.6 94.79-19.55L94.79-19.55Q96.54-21.5 99.07-22.38 101.59-23.25 104.19-23.25L104.19-23.25Q107.89-23.25 110.04-21.6 112.19-19.95 113.14-17.35 114.09-14.75 114.09-11.95L114.09-11.95Q114.09-9.5 113.47-7.15 112.84-4.8 111.19-2.95ZM103.04-21.3L103.04-21.3Q101.04-21.3 99.24-19.95 97.44-18.6 96.74-15.8L96.74-15.8Q96.54-14.85 96.44-13.9 96.34-12.95 96.34-11.95L96.34-11.95Q96.34-10.4 96.64-8.55 96.94-6.7 97.67-5.08 98.39-3.45 99.72-2.4 101.04-1.35 103.09-1.35L103.09-1.35Q105.14-1.35 106.42-2.25 107.69-3.15 108.39-4.6 109.09-6.05 109.37-7.75 109.64-9.45 109.64-11L109.64-11Q109.64-12.55 109.39-14.33 109.14-16.1 108.47-17.7 107.79-19.3 106.47-20.3 105.14-21.3 103.04-21.3ZM136.79-19.4L136.79-19.4 134.09-16.95 133.49-17.2Q133.29-18.25 132.69-19.18 132.09-20.1 130.84-20.1L130.84-20.1Q129.29-20.1 128.34-19.05 127.39-18 126.99-17L126.99-17Q126.64-16.2 126.59-14.7 126.54-13.2 126.59-11.53 126.64-9.85 126.64-8.5L126.64-8.5Q126.64-4.75 126.79-0.9L126.79-0.9 123.29 0.15 122.54-0.3Q122.79-2.95 122.96-6.05 123.14-9.15 123.14-12.15L123.14-12.15Q123.14-14.1 123.09-16.05 123.04-18 122.59-19.3 122.14-20.6 120.99-20.6L120.99-20.6Q120.14-20.6 119.09-20.1 118.04-19.6 117.09-19.05L117.09-19.05 116.49-19.9Q117.49-20.7 118.66-21.55 119.84-22.4 121.04-23.03 122.24-23.65 123.24-23.65L123.24-23.65Q124.94-23.65 125.79-22.65 126.64-21.65 126.84-20.05L126.84-20.05 127.34-19.85Q128.09-20.55 129.01-21.38 129.94-22.2 130.94-22.78 131.94-23.35 132.84-23.35L132.84-23.35Q136.39-23.35 136.79-19.4ZM142.49 9.1L142.49 9.1 142.39 8.55 144.59 5.75 145.24 5.75Q146.04 7.15 147.39 8.38 148.74 9.6 150.44 9.6L150.44 9.6Q152.44 9.6 153.74 8.78 155.04 7.95 155.79 6.7 156.54 5.45 156.91 4.1 157.29 2.75 157.49 1.7L157.49 1.7Q157.74 0.45 157.79-0.78 157.84-2 157.89-3.2L157.89-3.2 157.59-3.45Q155.49-2.15 153.04-0.88 150.59 0.4 148.19 0.4L148.19 0.4Q146.39 0.4 145.34-0.4 144.29-1.2 143.79-2.48 143.29-3.75 143.14-5.18 142.99-6.6 142.99-7.85L142.99-7.85Q142.99-9.55 143.09-11.2 143.19-12.85 143.19-14.7L143.19-14.7Q143.19-17.4 142.81-18.95 142.44-20.5 140.89-20.5L140.89-20.5Q140.24-20.5 139.21-20.03 138.19-19.55 137.34-19.1L137.34-19.1 136.79-20.05Q137.04-20.25 137.84-20.78 138.64-21.3 139.66-21.9 140.69-22.5 141.79-22.95 142.89-23.4 143.74-23.4L143.74-23.4Q145.34-23.4 146.11-22.35 146.89-21.3 146.89-19.9L146.89-19.9Q146.89-17.8 146.79-15.65 146.69-13.5 146.69-11.3L146.69-11.3Q146.79-9 146.96-7.6 147.14-6.2 147.41-5.43 147.69-4.65 148.09-4.1L148.09-4.1Q148.64-3.4 149.49-3.1 150.34-2.8 151.24-2.8L151.24-2.8Q153.04-2.8 154.79-3.7 156.54-4.6 157.94-5.4L157.94-5.4Q157.99-6.7 158.01-8.05 158.04-9.4 158.04-10.75L158.04-10.75Q158.04-13.45 157.94-16.13 157.84-18.8 157.64-21.4L157.64-21.4 161.59-23.3 162.19-23.1Q161.94-19.3 161.89-15.5 161.84-11.7 161.81-8.28 161.79-4.85 161.66-2.1 161.54 0.65 161.14 2.45L161.14 2.45Q160.24 5.7 158.36 7.73 156.49 9.75 154.01 10.7 151.54 11.65 148.84 11.65L148.84 11.65Q147.09 11.65 145.29 10.9 143.49 10.15 142.49 9.1ZM197.28-2.9L197.28-2.9 197.78-2.4 197.08 0.25Q195.68 0.1 193.28 0.03 190.88-0.05 187.96-0.08 185.03-0.1 182.03-0.1 179.03-0.1 176.43-0.1L176.43-0.1 176.43-0.8Q177.03-1.65 177.28-3.43 177.53-5.2 177.53-7.15L177.53-7.15 177.53-31.05Q177.53-31.6 177.28-32.1 177.03-32.6 176.48-32.7L176.48-32.7Q175.98-32.8 175.31-32.95 174.63-33.1 174.13-33.2 173.63-33.3 173.58-33.3L173.58-33.3 173.63-34.15 173.98-34.5 185.83-34.5 186.13-34.2 186.13-33.15Q186.13-33.15 185.53-33.02 184.93-32.9 184.18-32.75 183.43-32.6 182.88-32.45L182.88-32.45Q182.43-32.4 182.23-32 182.03-31.6 181.98-31.2L181.98-31.2Q181.68-25.75 181.68-19.65L181.68-19.65Q181.68-15.4 181.78-11.13 181.88-6.85 182.03-2.8L182.03-2.8Q182.08-2.6 182.28-2.38 182.48-2.15 182.68-2.15L182.68-2.15Q184.63-2.15 187.08-2.25 189.53-2.35 191.83-2.5 194.13-2.65 195.66-2.78 197.18-2.9 197.28-2.9ZM219.43-2.95L219.43-2.95Q217.68-0.95 215.15-0.13 212.63 0.7 209.98 0.7L209.98 0.7Q206.53 0.7 204.45-0.83 202.38-2.35 201.43-4.75 200.48-7.15 200.28-9.8L200.28-9.8Q200.28-12.4 200.75-15 201.23-17.6 203.03-19.55L203.03-19.55Q204.78-21.5 207.3-22.38 209.83-23.25 212.43-23.25L212.43-23.25Q216.13-23.25 218.28-21.6 220.43-19.95 221.38-17.35 222.33-14.75 222.33-11.95L222.33-11.95Q222.33-9.5 221.7-7.15 221.08-4.8 219.43-2.95ZM211.28-21.3L211.28-21.3Q209.28-21.3 207.48-19.95 205.68-18.6 204.98-15.8L204.98-15.8Q204.78-14.85 204.68-13.9 204.58-12.95 204.58-11.95L204.58-11.95Q204.58-10.4 204.88-8.55 205.18-6.7 205.9-5.08 206.63-3.45 207.95-2.4 209.28-1.35 211.33-1.35L211.33-1.35Q213.38-1.35 214.65-2.25 215.93-3.15 216.63-4.6 217.33-6.05 217.6-7.75 217.88-9.45 217.88-11L217.88-11Q217.88-12.55 217.63-14.33 217.38-16.1 216.7-17.7 216.03-19.3 214.7-20.3 213.38-21.3 211.28-21.3ZM242.88-21.25L242.88-21.25 245.38-23Q245.53-23.1 245.78-23.1L245.78-23.1Q246.48-23.1 247.28-21.7 248.08-20.3 248.08-18.1L248.08-18.1Q248.08-16.05 247.23-14.18 246.38-12.3 245.33-10.6L245.33-10.6Q243.63-7.9 241.6-5.5 239.58-3.1 237.38-0.85L237.38-0.85Q236.98-0.45 236.53 0 236.08 0.45 235.88 0.55L235.88 0.55 234.68 0.55 231.23-12.35Q230.68-14.5 230.05-16.32 229.43-18.15 228.78-19.28 228.13-20.4 227.33-20.4L227.33-20.4Q226.53-20.4 225.78-20.13 225.03-19.85 224.18-19.35L224.18-19.35 223.73-20.55Q225.08-21.5 226.8-22.48 228.53-23.45 229.98-23.45L229.98-23.45Q231.28-23.45 232.03-22.38 232.78-21.3 233.35-19.33 233.93-17.35 234.63-14.65L234.63-14.65Q234.93-13.55 235.33-11.78 235.73-10 236.2-8.25 236.68-6.5 237.15-5.3 237.63-4.1 238.03-4.1L238.03-4.1Q238.23-4.1 238.58-4.5 238.93-4.9 239.23-5.2L239.23-5.2Q240.48-6.7 241.7-8.43 242.93-10.15 243.75-12 244.58-13.85 244.58-15.6L244.58-15.6Q244.58-16.8 243.98-18.1 243.38-19.4 242.73-20.6L242.73-20.6Q242.68-20.65 242.68-20.85L242.68-20.85Q242.68-21.05 242.88-21.25ZM271.27-17L271.27-17Q271.27-16.55 270.95-16.35 270.62-16.15 270.22-15.95L270.22-15.95 256.12-9.85Q256.27-8.3 256.95-6.65 257.62-5 259-3.9 260.37-2.8 262.57-2.8L262.57-2.8Q264.62-2.8 266.6-3.85 268.57-4.9 270.27-6.2L270.27-6.2 270.82-6.1 271.47-5.2Q269.92-3.75 268.1-2.43 266.27-1.1 264.25-0.25 262.22 0.6 260.07 0.6L260.07 0.6Q257.57 0.6 255.95-0.45 254.32-1.5 253.42-3.23 252.52-4.95 252.15-7.08 251.77-9.2 251.77-11.3L251.77-11.3Q251.77-13.5 252.32-15.6 252.87-17.7 254.32-19.4L254.32-19.4Q256.17-21.55 258.75-22.73 261.32-23.9 264.17-23.9L264.17-23.9Q267.42-23.9 269.35-21.9 271.27-19.9 271.27-17ZM262.42-21.9L262.42-21.9Q261.17-21.9 260.1-21.35 259.02-20.8 258.22-19.8L258.22-19.8Q256.77-18.25 256.35-16.55 255.92-14.85 255.92-13L255.92-13Q255.92-12.8 255.95-12.58 255.97-12.35 256.02-12.1L256.02-12.1 256.22-11.9 266.32-15.9Q266.57-16 266.77-16.3 266.97-16.6 266.97-17.2L266.97-17.2Q266.97-18.25 266.42-19.35 265.87-20.45 264.85-21.18 263.82-21.9 262.42-21.9ZM292.77-19.4L292.77-19.4 290.07-16.95 289.47-17.2Q289.27-18.25 288.67-19.18 288.07-20.1 286.82-20.1L286.82-20.1Q285.27-20.1 284.32-19.05 283.37-18 282.97-17L282.97-17Q282.62-16.2 282.57-14.7 282.52-13.2 282.57-11.53 282.62-9.85 282.62-8.5L282.62-8.5Q282.62-4.75 282.77-0.9L282.77-0.9 279.27 0.15 278.52-0.3Q278.77-2.95 278.95-6.05 279.12-9.15 279.12-12.15L279.12-12.15Q279.12-14.1 279.07-16.05 279.02-18 278.57-19.3 278.12-20.6 276.97-20.6L276.97-20.6Q276.12-20.6 275.07-20.1 274.02-19.6 273.07-19.05L273.07-19.05 272.47-19.9Q273.47-20.7 274.65-21.55 275.82-22.4 277.02-23.03 278.22-23.65 279.22-23.65L279.22-23.65Q280.92-23.65 281.77-22.65 282.62-21.65 282.82-20.05L282.82-20.05 283.32-19.85Q284.07-20.55 285-21.38 285.92-22.2 286.92-22.78 287.92-23.35 288.82-23.35L288.82-23.35Q292.37-23.35 292.77-19.4Z" opacity="1" transform="matrix(1,0,0,1,0,0)" fill="#000000" class="wordmark-text-0" data-fill-palette-color="primary" id="text-0"></path></svg></g></svg></g></svg></g></svg></g><g transform="matrix(1,0,0,1,123.43907644037564,0)"><svg viewBox="0 0 148.6418471192487 148.6418471192487" height="148.6418471192487" width="148.6418471192487"><g><svg></svg></g><g id="icon-0"><svg viewBox="0 0 148.6418471192487 148.6418471192487" height="148.6418471192487" width="148.6418471192487"><g><path d="M0 74.321c0-41.046 33.275-74.321 74.321-74.321 41.046 0 74.321 33.275 74.321 74.321 0 41.046-33.275 74.321-74.321 74.321-41.046 0-74.321-33.275-74.321-74.321zM74.321 143.012c37.937 0 68.691-30.754 68.691-68.691 0-37.937-30.754-68.691-68.691-68.691-37.937 0-68.691 30.754-68.691 68.691 0 37.937 30.754 68.691 68.691 68.691z" data-fill-palette-color="accent" fill="#000000" stroke="transparent"></path></g><g transform="matrix(1,0,0,1,34.39078058737024,34.39078058737024)"><svg viewBox="0 0 79.86028594450822 79.86028594450822" height="79.86028594450822" width="79.86028594450822"><g><svg xmlns="http://www.w3.org/2000/svg" xmlns:xlink="http://www.w3.org/1999/xlink" version="1.1" x="0" y="0" viewBox="17.07 17.07 65.86000000000001 65.86000000000001" enable-background="new 0 0 100 100" xml:space="preserve" height="79.86028594450822" width="79.86028594450822" class="icon-dxe-0" data-fill-palette-color="accent" id="dxe-0"><g fill="#4c1d07" data-fill-palette-color="accent"><path d="M72.291 38.349C78.157 38.349 82.93 33.576 82.93 27.71S78.157 17.07 72.291 17.07H27.709C21.843 17.07 17.07 21.843 17.07 27.709S21.842 38.348 27.709 38.348C30.973 38.348 33.895 36.868 35.848 34.547V80.43H28.22A1.25 1.25 0 0 0 28.22 82.93H37.097C37.787 82.93 38.347 82.37 38.347 81.68V27.709A1.25 1.25 0 0 0 35.847 27.709C35.847 32.197 32.196 35.848 27.708 35.848S19.569 32.197 19.569 27.709 23.22 19.57 27.708 19.57H72.289C76.777 19.57 80.428 23.221 80.428 27.709S76.777 35.848 72.289 35.848 64.15 32.197 64.15 27.709A1.25 1.25 0 0 0 61.65 27.709V81.68C61.65 82.37 62.21 82.93 62.9 82.93H71.777A1.25 1.25 0 0 0 71.777 80.43H64.149V34.547C66.105 36.869 69.027 38.349 72.291 38.349" fill="#000000" data-fill-palette-color="accent"></path><path d="M75.2 24.798A4.1 4.1 0 0 1 76.406 27.71 4.12 4.12 0 0 1 72.29 31.824 4.1 4.1 0 0 1 69.381 30.619 1.25 1.25 0 0 0 67.613 32.387 6.57 6.57 0 0 0 72.29 34.324 6.623 6.623 0 0 0 78.906 27.71 6.58 6.58 0 0 0 76.968 23.03 6.58 6.58 0 0 0 72.291 21.094H27.708A6.58 6.58 0 0 0 23.029 23.032 6.58 6.58 0 0 0 21.093 27.71 6.623 6.623 0 0 0 27.709 34.324 6.57 6.57 0 0 0 32.385 32.386 1.25 1.25 0 0 0 30.617 30.618 4.1 4.1 0 0 1 27.708 31.823 4.12 4.12 0 0 1 23.592 27.709C23.592 26.61 24.02 25.576 24.796 24.799A4.1 4.1 0 0 1 27.709 23.593H72.29A4.1 4.1 0 0 1 75.2 24.798" fill="#000000" data-fill-palette-color="accent"></path><path d="M54.3 26.459C53.61 26.459 53.05 27.019 53.05 27.709V81.68A1.25 1.25 0 0 0 55.55 81.68V27.709C55.55 27.019 54.991 26.459 54.3 26.459" fill="#000000" data-fill-palette-color="accent"></path><path d="M45.699 26.459C45.009 26.459 44.449 27.019 44.449 27.709V81.68A1.25 1.25 0 0 0 46.949 81.68V27.709C46.949 27.019 46.389 26.459 45.699 26.459" fill="#000000" data-fill-palette-color="accent"></path></g></svg></g></svg></g></svg></g></svg></g><g></g></svg></g><defs></defs></svg><rect width="395.52" height="240.54183189933076" fill="none" stroke="none" visibility="hidden"></rect></g></svg></g></svg>