<svg xmlns="http://www.w3.org/2000/svg" version="1.1" xmlns:xlink="http://www.w3.org/1999/xlink" xmlns:svgjs="http://svgjs.dev/svgjs" width="1500" height="1388" viewBox="0 0 1500 1388"><g transform="matrix(1,0,0,1,-1.036586581814845,71.05503212872259)"><svg viewBox="0 0 268 248" data-background-color="#006a27" preserveAspectRatio="xMidYMid meet" height="1388" width="1500" xmlns="http://www.w3.org/2000/svg" xmlns:xlink="http://www.w3.org/1999/xlink"><g id="tight-bounds" transform="matrix(1,0,0,1,0.1852034692842608,0.4000000000000057)"><svg viewBox="0 0 267.6295930614315 247.2" height="247.2" width="267.6295930614315"><g><svg viewBox="0 0 397.4975999999999 367.154489890231" height="247.2" width="267.6295930614315"><g><rect width="397.4975999999999" height="7.7933172499895615" x="0" y="194.7842666857941" fill="#edee5d" opacity="1" stroke-width="0" stroke="transparent" fill-opacity="1" class="rect-yte-0" data-fill-palette-color="primary" rx="1%" id="yte-0" data-palette-color="#edee5d"></rect></g><g><rect width="397.4975999999999" height="7.7933172499895615" x="0" y="212.77826096456582" fill="#edee5d" opacity="1" stroke-width="0" stroke="transparent" fill-opacity="1" class="rect-yte-1" data-fill-palette-color="primary" rx="1%" id="yte-1" data-palette-color="#edee5d"></rect></g><g transform="matrix(1,0,0,1,0.9887999999999693,240.9729322721197)"><svg viewBox="0 0 395.52 126.18155761811128" height="126.18155761811128" width="395.52"><g id="textblocktransform"><svg viewBox="0 0 395.52 126.18155761811128" height="126.18155761811128" width="395.52" id="textblock"><g><svg viewBox="0 0 395.52 86.41858578408774" height="86.41858578408774" width="395.52"><g transform="matrix(1,0,0,1,0,0)"><svg width="395.52" viewBox="-3.8 -32 180.753333333325 39.50000000000001" height="86.41858578408774" data-palette-color="#edee5d"><path d="M1.8 7.5L1.8 7.5Q-0.85 7.5-2.33 5.95-3.8 4.4-3.8 1.75L-3.8 1.75Q-3.8 1.1-3.73 0.5-3.65-0.1-3.55-0.6L-3.55-0.6Q-2.65-4.85 1-10.35L1-10.35Q3.4-14.05 6.38-17.05 9.35-20.05 12.53-21.85 15.7-23.65 18.65-23.65L18.65-23.65Q20.35-23.65 21.15-22.73 21.95-21.8 21.95-20.25L21.95-20.25Q21.95-18.45 21.05-16.1L21.05-16.1Q20.1-13.75 18.73-11.68 17.35-9.6 16.05-8.65L16.05-8.65Q15.85-8.45 15.6-8.45L15.6-8.45Q15.4-8.45 15.4-8.7L15.4-8.7Q15.4-9.25 16.1-9.8L16.1-9.8Q16.75-10.25 17.53-11.38 18.3-12.5 19.03-13.9 19.75-15.3 20.23-16.7 20.7-18.1 20.7-19.1L20.7-19.1Q20.7-21.5 18.3-21.5L18.3-21.5Q13.75-21.5 9.5-18L9.5-18Q6.65-15.7 4.33-12.63 2-9.55 0.38-6.35-1.25-3.15-2-0.3L-2-0.3Q-2.3 0.8-2.3 1.9L-2.3 1.9Q-2.3 4.05-1.07 5.3 0.15 6.55 2.25 6.35L2.25 6.35Q6.1 6 10.75 3.3L10.75 3.3Q13.8 1.5 16.65-0.75 19.5-3 21.95-5.48 24.4-7.95 26.2-10.25L26.2-10.25 23.8-9.9Q22.7-9.75 21.98-9.58 21.25-9.4 21-9.3L21-9.3Q20.9-9.25 20.75-9.25L20.75-9.25Q20.45-9.25 20.45-9.7L20.45-9.7Q20.45-10.15 20.78-10.75 21.1-11.35 21.5-11.55L21.5-11.55Q22.85-12.25 27.95-12.6L27.95-12.6Q30.15-15.1 32.5-17.6L32.5-17.6Q35-20.3 36.7-22.2 38.4-24.1 39.73-25.73 41.05-27.35 42.3-29.1L42.3-29.1Q42.7-29.65 43.1-29.65L43.1-29.65Q43.4-29.65 43.4-29.35L43.4-29.35Q43.4-29.05 43.2-28.85L43.2-28.85Q41.5-26.45 39.65-24.15 37.8-21.85 35.58-19.28 33.35-16.7 30.55-13.45L30.55-13.45 29.9-12.7 32.2-12.8 36.6-12.95Q36.55-12.85 37.05-13.88 37.55-14.9 38.55-17.05L38.55-17.05Q39.95-19.95 41.03-22.23 42.1-24.5 42.8-26.15L42.8-26.15Q44.25-29.4 44.3-30.65L44.3-30.65Q44.35-31.3 44.95-31.65 45.55-32 46.3-32L46.3-32Q46.85-32 47.33-31.83 47.8-31.65 47.9-31.4L47.9-31.4Q48.15-30.95 47.15-29L47.15-29Q46.5-27.65 45.55-25.9 44.6-24.15 43.4-22L43.4-22Q41.75-19.05 40.58-16.8 39.4-14.55 38.7-13L38.7-13 42.55-13.2 42.7-13.2Q43.15-13.2 43.15-12.9L43.15-12.9Q43.15-12.7 42.9-12.5 42.65-12.3 42.25-12.25L42.25-12.25 38.2-11.95Q38.15-11.85 37.65-10.75 37.15-9.65 36.2-7.6L36.2-7.6Q34.3-3.4 34.3-0.45L34.3-0.45Q34.3 1.55 35.8 1.55L35.8 1.55Q36.2 1.55 36.88 1.18 37.55 0.8 38.18 0.3 38.8-0.2 39.1-0.6L39.1-0.6Q39.45-1.1 39.8-1.1L39.8-1.1Q40-1.1 40-0.9L40-0.9Q40-0.65 39.6-0.25L39.6-0.25Q39.1 0.3 38.3 1 37.5 1.7 36.7 2.2 35.9 2.7 35.35 2.75L35.35 2.75Q32.15 2.95 32.15-0.15L32.15-0.15Q32.15-2 33.08-4.4 34-6.8 35.4-10L35.4-10 36.2-11.8Q34.5-11.65 31.55-11.05L31.55-11.05Q30.5-10.85 29.68-10.73 28.85-10.6 28.3-10.5L28.3-10.5Q25.35-7.15 21.95-3.95 18.55-0.75 15.03 1.85 11.5 4.45 8.13 5.98 4.75 7.5 1.8 7.5ZM40.75 1.05L40.75 1.05Q40.1 1.05 40.1-0.1L40.1-0.1Q40.1-1.05 40.55-1.95L40.55-1.95Q41.7-4.15 42.65-6.3L42.65-6.3Q43.3-7.6 43.87-8.8 44.45-10 44.95-11L44.95-11Q45.25-11.3 45.55-11.3L45.55-11.3Q46.2-11.3 45.95-10.7L45.95-10.7Q45.85-10.35 45.67-9.88 45.5-9.4 45.25-8.75L45.25-8.75Q44.45-6.65 44.3-5.8L44.3-5.8Q45.7-7.05 47.17-8.13 48.65-9.2 49.95-9.9 51.25-10.6 52.15-10.6L52.15-10.6Q52.95-10.6 52.95-9.95L52.95-9.95Q52.95-9.4 52.45-8.78 51.95-8.15 51.45-8.15L51.45-8.15Q51.2-8.15 51.05-8.3L51.05-8.3Q50.9-8.35 50.45-8.35L50.45-8.35Q48.85-8.35 47.1-6.8L47.1-6.8Q45.25-5.25 43.75-3.08 42.25-0.9 41.55 0.7L41.55 0.7Q41.2 1.05 40.75 1.05ZM58.5 1.35L58.5 1.35Q58.4 1.35 58.3 1.33 58.2 1.3 58.1 1.25L58.1 1.25Q57.4 0.9 57.2 0.25 57-0.4 57.1-1.4L57.1-1.4Q57.2-1.8 57.32-2.8 57.45-3.8 57.65-4.4L57.65-4.4 55.1-1.95 53.7-0.6Q52.25 0.85 51.3 0.85L51.3 0.85Q50.9 0.85 50.65 0.55L50.65 0.55Q50.2 0 50.2-0.8L50.2-0.8Q50.2-1.85 50.75-3.05 51.3-4.25 52.05-5.38 52.8-6.5 53.4-7.25L53.4-7.25Q54.9-9.1 56.32-10.15 57.75-11.2 59.3-11.2L59.3-11.2Q60.15-11.2 60.97-10.9 61.8-10.6 62.5-9.9L62.5-9.9 62.55-9.85Q62.55-9.7 62.3-9.55L62.3-9.55Q62.2-9.45 62.12-9.4 62.05-9.35 62-9.3L62-9.3Q61.4-8.7 60.65-7.3 59.9-5.9 59.35-4.38 58.8-2.85 58.8-1.75L58.8-1.75Q58.8-0.75 59.3-0.4L59.3-0.4Q59.55-0.25 59.85-0.25L59.85-0.25Q60.5-0.25 61.65-1.05L61.65-1.05Q61.7-1.1 61.87-1.23 62.05-1.35 62.4-1.6L62.4-1.6Q62.8-1.9 63.05-1.9L63.05-1.9Q63.3-1.9 63.3-1.7L63.3-1.7Q63.3-1.4 62.9-1L62.9-1Q62.6-0.75 62.22-0.45 61.85-0.15 61.35 0.15L61.35 0.15Q60.6 0.7 59.8 1.03 59 1.35 58.5 1.35ZM52.85-1.85L52.85-1.85Q53.9-1.85 56.75-4.95L56.75-4.95Q57.5-5.8 58.1-6.58 58.7-7.35 59.2-8.1L59.2-8.1Q60.1-9.55 59.8-10.1L59.8-10.1Q59.65-10.4 59.2-10.4L59.2-10.4Q58.65-10.4 57.7-9.83 56.75-9.25 55.77-8.35 54.8-7.45 54-6.55L54-6.55Q53.45-5.85 52.9-4.6 52.35-3.35 52.35-2.55L52.35-2.55Q52.35-1.85 52.85-1.85ZM65.29 2.25L65.29 2.25Q64.14 2.25 64.14 1L64.14 1Q64.14 0.05 64.64-1L64.64-1 68.19-8.75Q68.59-9.6 69.29-11.03 69.99-12.45 70.99-14.5L70.99-14.5Q71.09-14.7 71.22-14.95 71.34-15.2 71.49-15.45L71.49-15.45Q71.79-16 72.09-16.65L72.09-16.65 72.69-17.9Q73.64-19.9 74.37-21.08 75.09-22.25 75.99-22.85L75.99-22.85Q77.14-23.55 77.44-23.55L77.44-23.55Q77.79-23.55 78.19-22.85L78.19-22.85Q78.19-22.8 78.22-22.8 78.24-22.8 78.24-22.75L78.24-22.75Q78.24-22.45 77.79-21.75L77.79-21.75Q77.49-21.3 76.97-20.53 76.44-19.75 75.69-18.65L75.69-18.65Q72.94-14.7 71.02-11.5 69.09-8.3 67.79-5.05L67.79-5.05Q69.04-6.15 70.47-7.25 71.89-8.35 72.89-8.95L72.89-8.95Q74.29-9.75 75.34-9.75L75.34-9.75Q76.94-9.75 76.94-7.65L76.94-7.65Q76.94-5.35 75.59-3.48 74.24-1.6 71.87-0.23 69.49 1.15 66.49 2L66.49 2Q65.84 2.25 65.29 2.25ZM66.44 0.4L67.04 0.45Q68.89 0.45 70.74-0.8L70.74-0.8Q72.59-2 73.77-3.73 74.94-5.45 74.94-6.8L74.94-6.8Q74.94-7.65 74.39-8.2L74.39-8.2Q73.94-8.3 72.64-7.58 71.34-6.85 69.87-5.68 68.39-4.5 67.24-3.25L67.24-3.25Q66.24-0.2 66.44 0.4L66.44 0.4ZM92.29-14.1L92.29-14.1Q91.79-14.1 91.19-14.35L91.19-14.35Q89.79-14.75 88.34-16.05L88.34-16.05Q86.79-17.4 85.69-19.28 84.59-21.15 84.39-22.95L84.39-22.95Q84.34-23.15 84.34-23.45 84.34-23.75 84.34-24.15L84.34-24.15Q84.34-30.65 92.34-30.65L92.34-30.65Q96.39-30.65 101.26-29.35 106.14-28.05 112.49-25.9L112.49-25.9Q113.64-25.5 114.61-25.18 115.59-24.85 116.39-24.6L116.39-24.6Q118.34-24.05 119.79-24.05L119.79-24.05Q121.44-24.05 122.16-24.7 122.89-25.35 122.89-26.15L122.89-26.15 122.89-26.35Q122.89-26.95 123.24-26.95L123.24-26.95Q123.64-26.95 124.09-26.35L124.09-26.35Q124.19-26.25 124.19-25.95L124.19-25.95Q124.19-24.8 122.84-23.8 121.49-22.8 119.49-22.8L119.49-22.8Q119.19-22.8 118.96-22.8 118.74-22.8 118.54-22.85L118.54-22.85Q116.59-23.1 114.26-23.78 111.94-24.45 108.54-25.6L108.54-25.6Q103.79-27.2 100.64-28.05 97.49-28.9 94.79-28.9L94.79-28.9Q91.84-28.9 89.81-27.6 87.79-26.3 86.84-23.35L86.84-23.35Q86.69-22.9 86.69-22.35L86.69-22.35Q86.69-21.4 87.14-20.23 87.59-19.05 88.34-17.95 89.09-16.85 89.94-16.07 90.79-15.3 91.54-15.15L91.54-15.15Q92.74-14.9 92.74-14.35L92.74-14.35Q92.74-14.1 92.29-14.1ZM93.24 3.45L93.24 3.45Q92.09 3.45 92.19 1.95L92.19 1.95Q92.59-1.2 94.19-4.8L94.19-4.8Q94.99-6.65 96.51-9.58 98.04-12.5 100.29-16.45L100.29-16.45Q101.84-19.25 102.81-20.8 103.79-22.35 104.89-23.1L104.89-23.1Q105.84-23.75 106.69-23.75L106.69-23.75Q107.49-23.75 107.09-23.1L107.09-23.1Q106.29-22 105.16-20.33 104.04-18.65 102.59-16.4L102.59-16.4Q100.69-13.4 98.89-10.3 97.09-7.2 95.84-4.63 94.59-2.05 94.19-0.5L94.19-0.5Q94.04 0.1 94.04 0.5L94.04 0.5Q94.04 1.35 94.74 1.35L94.74 1.35Q95.84 1.35 98.74-0.9L98.74-0.9Q98.84-1 98.99-1L98.99-1Q99.19-1 99.19-0.75L99.19-0.75Q99.19-0.45 98.99-0.25L98.99-0.25Q98.79-0.05 98.49 0.18 98.19 0.4 97.79 0.7L97.79 0.7Q97.39 0.95 97.09 1.15 96.79 1.35 96.69 1.45L96.69 1.45Q96.04 1.9 95.59 2.23 95.14 2.55 94.89 2.75L94.89 2.75Q93.89 3.45 93.24 3.45ZM105.94 0.85L105.94 0.85Q103.99 0.85 103.99-0.9L103.99-0.9Q103.99-1 104.01-1.25 104.04-1.5 104.09-1.85L104.09-1.85Q104.59-3.9 106.11-5.83 107.64-7.75 109.64-9.2L109.64-9.2Q110.39-9.8 112.04-9.8L112.04-9.8Q112.99-9.8 113.71-9.53 114.44-9.25 114.74-8.7L114.74-8.7Q115.04-8.2 115.04-7.55L115.04-7.55Q115.04-7.45 115.01-7.25 114.99-7.05 114.94-6.8L114.94-6.8Q115.04-6.85 115.26-6.85 115.49-6.85 115.84-6.9L115.84-6.9Q116.19-6.95 116.51-7 116.84-7.05 117.19-7.05L117.19-7.05 117.39-7.05Q117.94-7.05 117.51-6.63 117.09-6.2 116.39-6.1L116.39-6.1 114.69-5.9Q114.19-4.5 112.96-3.1 111.74-1.7 110.26-0.68 108.79 0.35 107.49 0.65L107.49 0.65Q106.74 0.85 105.94 0.85ZM112.34-6.6L112.34-6.6Q112.64-6.6 113.06-6.63 113.49-6.65 114.04-6.7L114.04-6.7Q114.09-6.8 114.09-7.15L114.09-7.15Q114.09-8.05 113.34-8.4L113.34-8.4Q112.94-8.65 112.34-8.65L112.34-8.65Q111.59-8.65 110.81-8.18 110.04-7.7 109.19-6.95L109.19-6.95Q110.24-6.6 112.34-6.6ZM107.44-0.9L107.44-0.9Q107.94-0.9 108.86-1.38 109.79-1.85 110.79-2.65 111.79-3.45 112.59-4.35L112.59-4.35Q112.84-4.6 113.09-4.98 113.34-5.35 113.64-5.75L113.64-5.75 112.44-5.6Q109.64-5.2 107.44-5.15L107.44-5.15Q106.34-3.35 106.09-2.15L106.09-2.15Q106.04-1.5 106.44-1.2 106.84-0.9 107.44-0.9ZM125.38 1.45L125.38 1.45Q124.08 1.45 124.08-0.45L124.08-0.45Q124.08-2.4 125.43-6.2L125.43-6.2Q123.83-4.15 122.26-2.58 120.68-1 119.13 0L119.13 0Q118.03 0.8 117.13 0.8L117.13 0.8Q115.93 0.8 115.93-0.85L115.93-0.85Q115.93-1.75 116.23-2.5L116.23-2.5Q116.63-3.6 117.41-5.05 118.18-6.5 119.23-7.95 120.28-9.4 121.38-10.4L121.38-10.4Q121.78-10.65 121.88-10.65L121.88-10.65Q122.23-10.65 122.23-10.25L122.23-10.25Q122.23-10.1 122.08-9.85L122.08-9.85Q121.63-9.35 121.03-8.4 120.43-7.45 119.88-6.35 119.33-5.25 118.96-4.33 118.58-3.4 118.58-2.95L118.58-2.95Q118.58-2.05 119.38-2.05L119.38-2.05Q119.73-2.05 120.13-2.3L120.13-2.3Q121.98-3.45 123.53-5.08 125.08-6.7 126.43-9.5L126.43-9.5Q126.88-9.8 127.43-9.8L127.43-9.8Q127.98-9.8 128.36-9.45 128.73-9.1 128.73-8.5L128.73-8.5Q128.73-8.05 128.48-7.45L128.48-7.45Q128.43-7.25 128.31-7.05 128.18-6.85 128.03-6.6L128.03-6.6Q127.88-6.35 127.78-6.13 127.68-5.9 127.58-5.75L127.58-5.75Q126.63-4.05 126.11-2.9 125.58-1.75 125.58-0.9L125.58-0.9Q125.58 0.1 126.48 0.1L126.48 0.1Q127.28 0.1 128.08-0.5L128.08-0.5Q128.58-0.85 128.93-0.85L128.93-0.85Q129.48-0.85 128.71-0.18 127.93 0.5 126.83 1.05L126.83 1.05Q125.78 1.45 125.38 1.45ZM130.13 1.05L130.13 1.05Q129.48 1.05 129.48-0.1L129.48-0.1Q129.48-1.05 129.93-1.95L129.93-1.95Q131.08-4.15 132.03-6.3L132.03-6.3Q132.68-7.6 133.26-8.8 133.83-10 134.33-11L134.33-11Q134.63-11.3 134.93-11.3L134.93-11.3Q135.58-11.3 135.33-10.7L135.33-10.7Q135.23-10.35 135.06-9.88 134.88-9.4 134.63-8.75L134.63-8.75Q133.83-6.65 133.68-5.8L133.68-5.8Q135.08-7.05 136.56-8.13 138.03-9.2 139.33-9.9 140.63-10.6 141.53-10.6L141.53-10.6Q142.33-10.6 142.33-9.95L142.33-9.95Q142.33-9.4 141.83-8.78 141.33-8.15 140.83-8.15L140.83-8.15Q140.58-8.15 140.43-8.3L140.43-8.3Q140.28-8.35 139.83-8.35L139.83-8.35Q138.23-8.35 136.48-6.8L136.48-6.8Q134.63-5.25 133.13-3.08 131.63-0.9 130.93 0.7L130.93 0.7Q130.58 1.05 130.13 1.05ZM145.13-10.95L145.13-10.95Q144.48-10.95 144.48-11.25L144.48-11.25Q144.48-11.5 144.85-11.98 145.23-12.45 145.73-12.8L145.73-12.8Q146.83-13.5 147.45-14 148.08-14.5 148.98-15.7L148.98-15.7Q149.03-15.6 149.03-15.3L149.03-15.3Q149.03-14.65 148.5-13.73 147.98-12.8 147.33-12.05 146.68-11.3 146.18-11.1L146.18-11.1Q145.73-10.95 145.13-10.95ZM140.68 1.3L140.68 1.3Q140.28 1.3 139.93 1 139.58 0.7 139.58 0.2L139.58 0.2Q139.58-0.85 141.03-3.65L141.03-3.65 141.58-4.75Q141.68-4.85 141.85-5.25 142.03-5.65 142.38-6.3L142.38-6.3Q142.73-7 142.93-7.55 143.13-8.1 143.23-8.6L143.23-8.6Q143.23-8.65 143.43-8.8 143.63-8.95 143.83-9.05L143.83-9.05 144.13-9.1Q144.53-9.1 144.8-8.95 145.08-8.8 144.98-8.55L144.98-8.55Q144.63-7.8 144.38-7.25 144.13-6.7 143.98-6.3L143.98-6.3 143.93-6.3Q143.38-5.05 143-3.93 142.63-2.8 142.68-1.8L142.68-1.8 142.73-0.45Q142.68 0.05 142.38 0.4L142.38 0.4Q142.18 0.55 141.83 0.78 141.48 1 140.93 1.25L140.93 1.25Q140.88 1.3 140.68 1.3ZM144.13 2.1L144.13 2.1Q143.33 2.1 142.73 1.95L142.73 1.95Q142.18 1.8 142.18 1.55L142.18 1.55Q142.18 1.15 142.98 1.1L142.98 1.1Q143.73 1.05 143.98 0.95L143.98 0.95Q144.43 0.85 145.03 0.8L145.03 0.8Q145.58 0.7 145.93 0.65L145.93 0.65Q148.33-0.05 148.33-1.5L148.33-1.5Q148.33-2.5 147.28-4.05L147.28-4.05Q146.63-5 146.63-6.15L146.63-6.15Q146.63-7.55 147.5-8.9 148.38-10.25 149.7-11.28 151.03-12.3 152.38-12.65L152.38-12.65Q152.98-12.8 153.63-12.8L153.63-12.8Q154.68-12.8 155.13-12.3L155.13-12.3Q155.43-12 155.43-11L155.43-11Q155.43-10.25 155.18-9.47 154.93-8.7 154.48-8.2L154.48-8.2Q154.23-7.95 154.08-7.95L154.08-7.95Q153.83-7.95 153.83-8.65L153.83-8.65 153.88-9.65Q153.93-10.05 153.95-10.35 153.98-10.65 153.98-10.85L153.98-10.85Q153.98-11.7 153.63-11.85L153.63-11.85Q153.23-11.95 153.08-11.95L153.08-11.95Q152.03-11.95 150.83-11 149.63-10.05 148.88-8.8L148.88-8.8Q148.58-8.35 148.58-7.7L148.58-7.7Q148.58-6.9 149-5.83 149.43-4.75 149.63-4.25L149.63-4.25Q150.13-3.15 150.4-2.35 150.68-1.55 150.68-0.95L150.68-0.95Q150.68-0.65 150.63-0.5L150.63-0.5Q150.88-0.6 151.83-0.8L151.83-0.8Q152.68-1 153.28-1L153.28-1Q153.63-1 153.63-0.85L153.63-0.85Q153.63-0.8 153.33-0.5L153.33-0.5Q153.18-0.35 152.4-0.03 151.63 0.3 150.6 0.65 149.58 1 148.58 1.3 147.58 1.6 146.88 1.75L146.88 1.75Q145.68 2.1 144.13 2.1ZM154.37 1.65L154.37 1.65Q154.02 1.65 154.02 1.05L154.02 1.05Q154.02 0.55 154.25-0.15 154.47-0.85 154.77-1.45L154.77-1.45Q155.22-2.3 156.12-4.45L156.12-4.45Q157.17-6.8 157.87-8.22 158.57-9.65 159.22-10.4L159.22-10.4Q159.92-11.25 160.32-11.25L160.32-11.25Q160.57-11.25 160.72-10.93 160.87-10.6 160.87-10.2L160.87-10.2Q160.87-9.8 160.77-9.7L160.77-9.7Q160.37-9.3 159.72-8.35 159.07-7.4 158.52-6.45L158.52-6.45Q157.47-4.5 157.47-3.55L157.47-3.55Q157.47-3.45 157.5-3.35 157.52-3.25 157.57-3.15L157.57-3.15Q158.17-3.45 158.67-3.75 159.17-4.05 159.82-4.6L159.82-4.6 162.87-7.4Q163.37-7.85 163.77-8.15 164.17-8.45 164.42-8.65L164.42-8.65Q164.92-9 165.37-9L165.37-9Q165.77-9 166.32-8.5L166.32-8.5Q166.57-8.25 166.57-7.15L166.57-7.15 166.57-5.9Q166.57-5.7 166.55-5.53 166.52-5.35 166.52-5.15L166.52-5.15Q166.52-4.5 166.7-4.03 166.87-3.55 167.22-3.55L167.22-3.55Q167.37-3.55 167.62-3.8L167.62-3.8 169.02-5.45Q170.77-7.5 171.72-8.45 172.67-9.4 173.87-9.75L173.87-9.75Q174.02-9.8 174.15-9.83 174.27-9.85 174.37-9.85L174.37-9.85Q174.82-9.85 175.15-9.55 175.47-9.25 175.32-8.75L175.32-8.75Q175.12-7.95 174.8-6.93 174.47-5.9 174.22-5.3L174.22-5.3Q173.62-4.1 173.62-3.4L173.62-3.4Q173.62-2.95 174-2.8 174.37-2.65 174.75-2.6 175.12-2.55 175.12-2.4L175.12-2.4Q176.12-2.75 176.62-2.75L176.62-2.75Q177.12-2.75 176.87-2.43 176.62-2.1 175.97-1.65 175.32-1.2 174.55-0.88 173.77-0.55 173.17-0.55L173.17-0.55Q171.92-0.55 171.92-1.9L171.92-1.9Q171.92-2.6 172.12-3.2L172.12-3.2Q172.82-5.75 172.82-6.5L172.82-6.5Q172.82-7.25 172.42-7.25L172.42-7.25Q171.52-7.25 168.57-3.65L168.57-3.65Q168.27-3.3 167.9-2.9 167.52-2.5 167.07-2.1L167.07-2.1Q166.47-1.55 165.92-0.95L165.92-0.95Q165.62-0.65 165.12-0.65L165.12-0.65Q164.07-0.65 163.97-1.4L163.97-1.4Q163.92-2.2 163.9-2.73 163.87-3.25 163.87-3.45L163.87-3.45Q163.77-4.75 163.72-5.2L163.72-5.2Q163.67-5.65 163.27-5.65L163.27-5.65Q162.77-5.65 160.77-4.05L160.77-4.05Q158.07-1.9 155.82 0.75L155.82 0.75Q154.87 1.65 154.37 1.65Z" opacity="1" transform="matrix(1,0,0,1,0,0)" fill="#edee5d" class="wordmark-text-0" data-fill-palette-color="primary" id="text-0"></path></svg></g></svg></g><g transform="matrix(1,0,0,1,75.54432,106.81993984165203)"><svg viewBox="0 0 244.43135999999998 19.361617776459244" height="19.361617776459244" width="244.43135999999998"><g transform="matrix(1,0,0,1,0,0)"><svg width="244.43135999999998" viewBox="4.64 -39.84 658.29 52.14000000000001" height="19.361617776459244" data-palette-color="#ff4145"><path d="M27.15-31.54L10.6-31.54 10.6-20.21 25.63-20.21 25.63-16.21 10.6-16.21 10.6-4.44 27.15-4.44 27.15 0 4.64 0 4.64-35.99 27.15-35.99 27.15-31.54ZM34.32-2.2L34.32-2.2 36.81-6.15Q37.79-5.47 39.13-4.88 40.48-4.3 42.53-4.3L42.53-4.3Q45.21-4.3 46.73-5.13 48.24-5.96 48.24-7.57L48.24-7.57Q48.24-8.74 47.36-9.45 46.48-10.16 45.14-10.67 43.8-11.18 42.26-11.65 40.72-12.11 39.4-12.79L39.4-12.79Q36.81-14.16 35.52-15.67 34.23-17.19 34.23-19.68L34.23-19.68Q34.23-21.73 35.08-23.29 35.94-24.85 37.3-25.9 38.67-26.95 40.43-27.49 42.19-28.03 43.99-28.03L43.99-28.03Q46.43-28.03 48.48-27.51 50.53-27 52.44-25.78L52.44-25.78 50.53-21.73Q49.07-22.56 47.36-22.88 45.65-23.19 43.99-23.19L43.99-23.19Q42.19-23.19 41.14-22.39 40.09-21.58 40.09-19.87L40.09-19.87Q40.09-18.55 41.04-17.8 41.99-17.04 43.5-16.46 45.02-15.87 46.73-15.28 48.44-14.7 49.92-13.79 51.41-12.89 52.39-11.52 53.37-10.16 53.37-8.01L53.37-8.01Q53.37-5.91 52.54-4.35 51.71-2.78 50.29-1.76 48.87-0.73 47.02-0.24 45.16 0.24 43.06 0.24L43.06 0.24Q41.79 0.24 40.72 0.17 39.65 0.1 38.62-0.15 37.6-0.39 36.57-0.88 35.54-1.37 34.32-2.2ZM60.49-2.2L60.49-2.2 62.98-6.15Q63.96-5.47 65.3-4.88 66.65-4.3 68.7-4.3L68.7-4.3Q71.38-4.3 72.9-5.13 74.41-5.96 74.41-7.57L74.41-7.57Q74.41-8.74 73.53-9.45 72.65-10.16 71.31-10.67 69.97-11.18 68.43-11.65 66.89-12.11 65.57-12.79L65.57-12.79Q62.98-14.16 61.69-15.67 60.4-17.19 60.4-19.68L60.4-19.68Q60.4-21.73 61.25-23.29 62.1-24.85 63.47-25.9 64.84-26.95 66.6-27.49 68.35-28.03 70.16-28.03L70.16-28.03Q72.6-28.03 74.65-27.51 76.7-27 78.61-25.78L78.61-25.78 76.7-21.73Q75.24-22.56 73.53-22.88 71.82-23.19 70.16-23.19L70.16-23.19Q68.35-23.19 67.3-22.39 66.25-21.58 66.25-19.87L66.25-19.87Q66.25-18.55 67.21-17.8 68.16-17.04 69.67-16.46 71.19-15.87 72.9-15.28 74.6-14.7 76.09-13.79 77.58-12.89 78.56-11.52 79.54-10.16 79.54-8.01L79.54-8.01Q79.54-5.91 78.71-4.35 77.88-2.78 76.46-1.76 75.04-0.73 73.19-0.24 71.33 0.24 69.23 0.24L69.23 0.24Q67.96 0.24 66.89 0.17 65.82 0.1 64.79-0.15 63.76-0.39 62.74-0.88 61.71-1.37 60.49-2.2ZM98.72-27.83L98.72-27.83Q102.04-27.83 104.58-26.49 107.12-25.15 108.76-22.92 110.39-20.7 111.1-17.8 111.81-14.89 111.37-11.77L111.37-11.77 92.23-11.77Q92.23-10.21 92.81-8.89 93.4-7.57 94.4-6.62 95.4-5.66 96.79-5.13 98.19-4.59 99.8-4.59L99.8-4.59Q100.33-4.59 101.14-4.71 101.95-4.83 102.85-5.15 103.75-5.47 104.66-5.96 105.56-6.45 106.24-7.13L106.24-7.13 108.39-3.86Q106.78-1.86 104.63-0.83 102.48 0.2 99.16 0.2L99.16 0.2Q96.48 0.2 94.13-0.9 91.79-2 90.13-3.91 88.47-5.81 87.49-8.35 86.52-10.89 86.52-13.82L86.52-13.82Q86.52-16.7 87.49-19.26 88.47-21.83 90.1-23.73 91.74-25.63 93.99-26.73 96.23-27.83 98.72-27.83ZM92.42-16.06L105.9-16.06Q105.9-17.38 105.41-18.65 104.92-19.92 104.07-20.95 103.22-21.97 101.99-22.58 100.77-23.19 99.36-23.24L99.36-23.24Q97.84-23.24 96.57-22.66 95.31-22.07 94.38-21.09 93.45-20.12 92.94-18.77 92.42-17.43 92.42-16.06L92.42-16.06ZM142.42-0.98L142.42 0 136.46 0 136.46-14.99Q136.46-16.65 136.32-18.16 136.17-19.68 135.63-20.85 135.1-22.02 134.17-22.68 133.24-23.34 131.58-23.34L131.58-23.34Q131.04-23.34 130.19-23.19 129.34-23.05 128.43-22.75 127.53-22.46 126.72-22.02 125.92-21.58 125.53-21L125.53-21 125.53-20.7 125.53-20.61 125.53-9.77 125.53-9.67 125.53 0 119.62 0 119.62-27.54 124.89-27.54 125.53-24.76Q126.11-25.29 127.02-25.85 127.92-26.42 128.99-26.86 130.07-27.29 131.19-27.56 132.31-27.83 133.39-27.83L133.39-27.83Q135.59-27.83 137.1-26.9 138.61-25.98 140.13-24.51L140.13-24.51Q140.96-23.68 141.42-22.58 141.88-21.48 142.1-20.29 142.32-19.09 142.37-17.87 142.42-16.65 142.42-15.48L142.42-15.48 142.42-0.98ZM168.79-7.03L170.98-3.86Q169.32-1.76 167.37-0.76 165.42 0.24 162.39 0.24L162.39 0.24Q159.51 0.24 157.17-0.85 154.82-1.95 153.16-3.83 151.5-5.71 150.65-8.25 149.79-10.79 149.79-13.77L149.79-13.77Q149.79-16.7 150.72-19.24 151.65-21.78 153.31-23.66 154.97-25.54 157.31-26.61 159.66-27.69 162.54-27.69L162.54-27.69Q165.56-27.69 167.71-26.68 169.86-25.68 171.52-23.58L171.52-23.58 168.88-20.41Q168.05-21.39 166.59-22.19 165.12-23 162.59-23L162.59-23Q161.12-23 159.9-22.31 158.68-21.63 157.82-20.41 156.97-19.19 156.51-17.53 156.04-15.87 156.04-13.92L156.04-13.92Q156.04-11.96 156.46-10.28 156.87-8.59 157.7-7.32 158.53-6.05 159.68-5.32 160.83-4.59 162.34-4.59L162.34-4.59Q164.54-4.59 166.03-5.3 167.52-6.01 168.79-7.03L168.79-7.03ZM190.66-27.83L190.66-27.83Q193.98-27.83 196.52-26.49 199.06-25.15 200.69-22.92 202.33-20.7 203.04-17.8 203.74-14.89 203.31-11.77L203.31-11.77 184.16-11.77Q184.16-10.21 184.75-8.89 185.34-7.57 186.34-6.62 187.34-5.66 188.73-5.13 190.12-4.59 191.73-4.59L191.73-4.59Q192.27-4.59 193.08-4.71 193.88-4.83 194.78-5.15 195.69-5.47 196.59-5.96 197.49-6.45 198.18-7.13L198.18-7.13 200.33-3.86Q198.72-1.86 196.57-0.83 194.42 0.2 191.1 0.2L191.1 0.2Q188.41 0.2 186.07-0.9 183.73-2 182.07-3.91 180.4-5.81 179.43-8.35 178.45-10.89 178.45-13.82L178.45-13.82Q178.45-16.7 179.43-19.26 180.4-21.83 182.04-23.73 183.68-25.63 185.92-26.73 188.17-27.83 190.66-27.83ZM184.36-16.06L197.84-16.06Q197.84-17.38 197.35-18.65 196.86-19.92 196.01-20.95 195.15-21.97 193.93-22.58 192.71-23.19 191.29-23.24L191.29-23.24Q189.78-23.24 188.51-22.66 187.24-22.07 186.31-21.09 185.39-20.12 184.87-18.77 184.36-17.43 184.36-16.06L184.36-16.06ZM237.19-27.69L237.19-27.69Q240.02-27.69 242.31-26.59 244.61-25.49 246.22-23.58 247.83-21.68 248.71-19.14 249.59-16.6 249.59-13.67L249.59-13.67Q249.59-10.74 248.66-8.18 247.73-5.62 246.05-3.74 244.36-1.86 242.05-0.81 239.73 0.24 236.89 0.24L236.89 0.24Q234.01 0.24 231.65-0.83 229.28-1.9 227.64-3.81 226.01-5.71 225.13-8.25 224.25-10.79 224.25-13.77 224.25-16.75 225.2-19.34 226.15-21.92 227.84-23.75 229.52-25.59 231.91-26.64 234.31-27.69 237.19-27.69ZM236.8-4.39L236.8-4.39Q238.26-4.39 239.46-5.1 240.65-5.81 241.51-7.06 242.36-8.3 242.88-10.01 243.39-11.72 243.39-13.67L243.39-13.67Q243.39-15.63 242.92-17.33 242.46-19.04 241.65-20.34 240.85-21.63 239.68-22.41 238.51-23.19 237.04-23.19L237.04-23.19Q235.58-23.19 234.36-22.46 233.13-21.73 232.28-20.48 231.43-19.24 230.96-17.55 230.5-15.87 230.5-13.92L230.5-13.92Q230.5-11.96 230.91-10.23 231.33-8.5 232.16-7.23 232.99-5.96 234.14-5.18 235.28-4.39 236.8-4.39ZM269.02-33.84L269.02-33.84Q268.04-33.84 267.38-33.35 266.73-32.86 266.29-31.98 265.85-31.1 265.65-29.96 265.46-28.81 265.41-27.54L265.41-27.54 269.66-27.54 269.66-23.54 265.31-23.54 265.31-21.19 265.31 0 259.35 0 259.35-21.19 259.35-23.54 255.74-23.54 255.74-27.54 259.45-27.54Q259.6-29.64 260.04-31.57 260.48-33.5 261.43-34.94 262.38-36.38 264.02-37.26 265.65-38.13 268.14-38.13L268.14-38.13Q268.87-38.13 269.7-38.01 270.53-37.89 271.34-37.72 272.15-37.55 272.83-37.3 273.51-37.06 273.9-36.77L273.9-36.77 272-33.25Q271.32-33.64 270.36-33.74 269.41-33.84 269.02-33.84ZM318.23 0L312.03 0 305.25-13.04Q305.1-13.04 304.86-13.01 304.61-12.99 304.1-12.99 303.59-12.99 302.54-12.99 301.49-12.99 299.68-12.99L299.68-12.99 299.68 0 293.82 0 293.82-35.99 304.17-35.99Q306.47-35.99 308.71-35.25 310.96-34.52 312.74-33.06 314.52-31.59 315.62-29.52 316.72-27.44 316.72-24.85L316.72-24.85Q316.72-20.95 314.91-18.21 313.11-15.48 310.03-14.16L310.03-14.16 318.23 0ZM299.68-31.54L299.68-17.29 305-17.29Q306.08-17.29 307.15-17.65 308.22-18.02 309.1-18.85 309.98-19.68 310.52-21.17 311.06-22.66 311.06-24.85L311.06-24.85Q311.06-25.73 310.81-26.88 310.57-28.03 309.81-29.08 309.05-30.13 307.69-30.83 306.32-31.54 304.07-31.54L304.07-31.54 299.68-31.54ZM338.1-27.69L338.1-27.69Q340.94-27.69 343.23-26.59 345.53-25.49 347.14-23.58 348.75-21.68 349.63-19.14 350.51-16.6 350.51-13.67L350.51-13.67Q350.51-10.74 349.58-8.18 348.65-5.62 346.97-3.74 345.28-1.86 342.96-0.81 340.64 0.24 337.81 0.24L337.81 0.24Q334.93 0.24 332.56-0.83 330.19-1.9 328.56-3.81 326.92-5.71 326.04-8.25 325.17-10.79 325.17-13.77 325.17-16.75 326.12-19.34 327.07-21.92 328.75-23.75 330.44-25.59 332.83-26.64 335.22-27.69 338.1-27.69ZM337.71-4.39L337.71-4.39Q339.18-4.39 340.38-5.1 341.57-5.81 342.43-7.06 343.28-8.3 343.79-10.01 344.31-11.72 344.31-13.67L344.31-13.67Q344.31-15.63 343.84-17.33 343.38-19.04 342.57-20.34 341.77-21.63 340.6-22.41 339.42-23.19 337.96-23.19L337.96-23.19Q336.49-23.19 335.27-22.46 334.05-21.73 333.2-20.48 332.34-19.24 331.88-17.55 331.42-15.87 331.42-13.92L331.42-13.92Q331.42-11.96 331.83-10.23 332.25-8.5 333.08-7.23 333.91-5.96 335.05-5.18 336.2-4.39 337.71-4.39ZM378.29-27.54L384.24-27.54Q381.56-20.36 379.46-14.82 377.36-9.28 375.8-5.1 374.24-0.93 373.04 1.95 371.84 4.83 370.84 6.76 369.84 8.69 368.96 9.79 368.08 10.89 367.16 11.47 366.23 12.06 365.13 12.18 364.03 12.3 362.61 12.3L362.61 12.3Q362.17 12.3 361.59 12.18 361 12.06 360.44 11.89 359.88 11.72 359.44 11.55 359 11.38 358.85 11.33L358.85 11.33Q359.05 10.45 359.24 9.67L359.24 9.67Q359.39 8.98 359.56 8.37 359.73 7.76 359.83 7.52L359.83 7.52Q360.22 7.52 361.03 7.76 361.83 8.01 362.22 8.01L362.22 8.01Q363 8.01 363.61 7.93 364.23 7.86 364.71 7.5 365.2 7.13 365.64 6.42 366.08 5.71 366.62 4.39L366.62 4.39 368.47 0 357.19-27.54 363.1-27.54 371.16-6.35 378.29-27.54ZM410.46-14.89L410.46-8.54 410.46-8.15Q410.46-7.76 410.51-7.01 410.56-6.25 410.71-5.47 410.85-4.69 411.17-4.05 411.49-3.42 412.03-3.22L412.03-3.22 410.46 0.05Q409.83 0.05 409.12-0.24 408.41-0.54 407.75-1.07 407.09-1.61 406.63-2.27 406.17-2.93 405.92-3.71L405.92-3.71Q405.58-2.88 404.73-2.17 403.87-1.46 402.8-0.9 401.72-0.34 400.48-0.05 399.23 0.24 398.16 0.24L398.16 0.24Q396.5 0.24 394.96-0.2 393.42-0.63 392.25-1.61 391.08-2.59 390.42-4.2 389.76-5.81 389.76-8.15L389.76-8.15Q389.76-10.4 390.71-12.04 391.66-13.67 393.15-14.72 394.64-15.77 396.55-16.28 398.45-16.8 400.4-16.8L400.4-16.8 404.55-16.8Q404.55-19.19 404.31-20.61 404.07-22.02 403.48-22.68 402.89-23.34 402.04-23.51 401.19-23.68 400.01-23.68L400.01-23.68Q398.94-23.68 397.99-23.41 397.04-23.14 396.23-22.78 395.42-22.41 394.81-21.97 394.2-21.53 393.91-21.29L393.91-21.29 391.71-24.66Q392.2-25.2 393.18-25.76 394.15-26.32 395.42-26.76 396.69-27.2 398.18-27.47 399.67-27.73 401.28-27.73L401.28-27.73Q402.75-27.73 404.14-27.44 405.53-27.15 406.68-26.46 407.83-25.78 408.68-24.63 409.54-23.49 409.88-21.78L409.88-21.78Q410.22-20.07 410.34-18.33 410.46-16.6 410.46-14.89L410.46-14.89ZM404.6-6.59L404.6-13.33 401.48-13.33Q400.5-13.33 399.43-13.13 398.35-12.94 397.43-12.4 396.5-11.87 395.89-10.86 395.28-9.86 395.28-8.3L395.28-8.3Q395.28-5.86 396.38-4.79 397.47-3.71 399.57-3.71L399.57-3.71Q401.04-3.71 402.38-4.49 403.72-5.27 404.6-6.59L404.6-6.59ZM425.65-37.94L425.65-8.4Q425.65-6.74 426.09-5.79 426.53-4.83 427.31-4.37 428.09-3.91 429.09-3.76 430.09-3.61 431.26-3.61L431.26-3.61 431.26 0Q430.63 0.1 429.94 0.15L429.94 0.15Q429.41 0.2 428.67 0.22 427.94 0.24 427.21 0.24L427.21 0.24Q426.48 0.24 425.74 0.2 425.01 0.15 424.43 0.05L424.43 0.05Q422.77-0.29 421.84-1.42 420.91-2.54 420.42-3.93 419.93-5.32 419.81-6.64 419.69-7.96 419.69-8.69L419.69-8.69 419.69-9.28 419.69-37.94 425.65-37.94ZM473.83-31.54L457.28-31.54 457.28-20.21 472.32-20.21 472.32-16.21 457.28-16.21 457.28-4.44 473.83-4.44 473.83 0 451.32 0 451.32-35.99 473.83-35.99 473.83-31.54ZM517.92-15.48L517.92-0.93 517.92 0 512.06 0 512.06-14.99Q512.06-16.65 512.04-18.14 512.02-19.63 511.72-20.8 511.43-21.97 510.77-22.63 510.11-23.29 508.74-23.29L508.74-23.29Q508.5-23.29 507.89-23.22 507.28-23.14 506.45-22.92 505.62-22.71 504.62-22.22 503.62-21.73 502.64-20.95L502.64-20.95Q502.64-19.04 502.66-17.92 502.69-16.8 502.69-15.48L502.69-15.48 502.69 0 496.78 0 496.78-14.99Q496.78-16.65 496.78-18.14 496.78-19.63 496.49-20.8 496.2-21.97 495.51-22.63 494.83-23.29 493.51-23.29L493.51-23.29Q493.07-23.29 492.29-23.17 491.51-23.05 490.65-22.75 489.8-22.46 488.94-22.02 488.09-21.58 487.5-21L487.5-21 487.5 0 481.55 0 481.55-27.54 486.87-27.54 487.5-24.71Q488.72-25.83 490.65-26.78 492.58-27.73 494.68-27.73L494.68-27.73Q497.03-27.73 498.59-26.71 500.15-25.68 501.71-23.68L501.71-23.68Q502.54-24.61 503.57-25.39 504.59-26.17 505.69-26.71 506.79-27.25 507.87-27.54 508.94-27.83 509.92-27.83L509.92-27.83Q511.58-27.83 513.04-27.17 514.51-26.51 515.6-25.29 516.7-24.07 517.31-22.39 517.92-20.7 517.92-18.75L517.92-18.75 517.92-15.48ZM532.23-27.54L532.23 0 526.27 0 526.27-27.54 532.23-27.54ZM532.76-36.33L532.76-36.33Q532.76-34.86 531.74-33.86 530.71-32.86 529.25-32.86L529.25-32.86Q527.78-32.86 526.78-33.89 525.78-34.91 525.78-36.33L525.78-36.33Q525.78-37.79 526.81-38.82 527.83-39.84 529.25-39.84L529.25-39.84Q530.71-39.84 531.74-38.82 532.76-37.79 532.76-36.33ZM556-27.73L556-21.58Q554.64-21.97 552.68-22.02L552.68-22.02Q550.93-22.02 549.19-21.61 547.46-21.19 546.43-20.21L546.43-20.21 546.43-9.77 546.43-9.67 546.43 0 540.53 0 540.53-27.54 545.8-27.54 546.43-24.71Q547.17-25.44 547.97-26.03 548.78-26.61 549.85-26.98 550.93-27.34 552.39-27.54 553.86-27.73 556-27.73L556-27.73ZM582.27-14.89L582.27-8.54 582.27-8.15Q582.27-7.76 582.32-7.01 582.37-6.25 582.52-5.47 582.66-4.69 582.98-4.05 583.3-3.42 583.83-3.22L583.83-3.22 582.27 0.05Q581.64 0.05 580.93-0.24 580.22-0.54 579.56-1.07 578.9-1.61 578.44-2.27 577.97-2.93 577.73-3.71L577.73-3.71Q577.39-2.88 576.53-2.17 575.68-1.46 574.61-0.9 573.53-0.34 572.29-0.05 571.04 0.24 569.97 0.24L569.97 0.24Q568.31 0.24 566.77-0.2 565.23-0.63 564.06-1.61 562.89-2.59 562.23-4.2 561.57-5.81 561.57-8.15L561.57-8.15Q561.57-10.4 562.52-12.04 563.47-13.67 564.96-14.72 566.45-15.77 568.36-16.28 570.26-16.8 572.21-16.8L572.21-16.8 576.36-16.8Q576.36-19.19 576.12-20.61 575.88-22.02 575.29-22.68 574.7-23.34 573.85-23.51 572.99-23.68 571.82-23.68L571.82-23.68Q570.75-23.68 569.8-23.41 568.84-23.14 568.04-22.78 567.23-22.41 566.62-21.97 566.01-21.53 565.72-21.29L565.72-21.29 563.52-24.66Q564.01-25.2 564.99-25.76 565.96-26.32 567.23-26.76 568.5-27.2 569.99-27.47 571.48-27.73 573.09-27.73L573.09-27.73Q574.56-27.73 575.95-27.44 577.34-27.15 578.49-26.46 579.63-25.78 580.49-24.63 581.34-23.49 581.69-21.78L581.69-21.78Q582.03-20.07 582.15-18.33 582.27-16.6 582.27-14.89L582.27-14.89ZM576.41-6.59L576.41-13.33 573.29-13.33Q572.31-13.33 571.24-13.13 570.16-12.94 569.23-12.4 568.31-11.87 567.7-10.86 567.09-9.86 567.09-8.3L567.09-8.3Q567.09-5.86 568.18-4.79 569.28-3.71 571.38-3.71L571.38-3.71Q572.85-3.71 574.19-4.49 575.53-5.27 576.41-6.59L576.41-6.59ZM599.46-23.54L599.46-8.35Q599.46-6.69 599.9-5.76 600.34-4.83 601.14-4.35 601.95-3.86 602.95-3.74 603.95-3.61 605.07-3.61L605.07-3.61 605.07 0Q604.44 0.1 603.8 0.15L603.8 0.15Q603.27 0.2 602.51 0.22 601.75 0.24 601.02 0.24L601.02 0.24Q600.29 0.24 599.53 0.2 598.77 0.15 598.24 0.05L598.24 0.05Q596.58-0.24 595.65-1.39 594.72-2.54 594.26-3.93 593.79-5.32 593.67-6.64 593.55-7.96 593.55-8.69L593.55-8.69 593.55-23.54 589.94-23.54 589.94-27.54 593.55-27.54 593.55-35.35 599.46-35.35 599.46-27.54 603.85-27.54 603.85-23.54 599.46-23.54ZM623.53-27.83L623.53-27.83Q626.85-27.83 629.39-26.49 631.92-25.15 633.56-22.92 635.2-20.7 635.9-17.8 636.61-14.89 636.17-11.77L636.17-11.77 617.03-11.77Q617.03-10.21 617.62-8.89 618.2-7.57 619.21-6.62 620.21-5.66 621.6-5.13 622.99-4.59 624.6-4.59L624.6-4.59Q625.14-4.59 625.94-4.71 626.75-4.83 627.65-5.15 628.56-5.47 629.46-5.96 630.36-6.45 631.05-7.13L631.05-7.13 633.19-3.86Q631.58-1.86 629.43-0.83 627.29 0.2 623.97 0.2L623.97 0.2Q621.28 0.2 618.94-0.9 616.59-2 614.93-3.91 613.27-5.81 612.3-8.35 611.32-10.89 611.32-13.82L611.32-13.82Q611.32-16.7 612.3-19.26 613.27-21.83 614.91-23.73 616.54-25.63 618.79-26.73 621.04-27.83 623.53-27.83ZM617.23-16.06L630.7-16.06Q630.7-17.38 630.22-18.65 629.73-19.92 628.87-20.95 628.02-21.97 626.8-22.58 625.58-23.19 624.16-23.24L624.16-23.24Q622.65-23.24 621.38-22.66 620.11-22.07 619.18-21.09 618.25-20.12 617.74-18.77 617.23-17.43 617.23-16.06L617.23-16.06ZM643.89-2.2L643.89-2.2 646.38-6.15Q647.35-5.47 648.69-4.88 650.04-4.3 652.09-4.3L652.09-4.3Q654.77-4.3 656.29-5.13 657.8-5.96 657.8-7.57L657.8-7.57Q657.8-8.74 656.92-9.45 656.04-10.16 654.7-10.67 653.36-11.18 651.82-11.65 650.28-12.11 648.96-12.79L648.96-12.79Q646.38-14.16 645.08-15.67 643.79-17.19 643.79-19.68L643.79-19.68Q643.79-21.73 644.64-23.29 645.5-24.85 646.86-25.9 648.23-26.95 649.99-27.49 651.75-28.03 653.55-28.03L653.55-28.03Q655.99-28.03 658.05-27.51 660.1-27 662-25.78L662-25.78 660.1-21.73Q658.63-22.56 656.92-22.88 655.21-23.19 653.55-23.19L653.55-23.19Q651.75-23.19 650.7-22.39 649.65-21.58 649.65-19.87L649.65-19.87Q649.65-18.55 650.6-17.8 651.55-17.04 653.06-16.46 654.58-15.87 656.29-15.28 658-14.7 659.49-13.79 660.98-12.89 661.95-11.52 662.93-10.16 662.93-8.01L662.93-8.01Q662.93-5.91 662.1-4.35 661.27-2.78 659.85-1.76 658.44-0.73 656.58-0.24 654.73 0.24 652.63 0.24L652.63 0.24Q651.36 0.24 650.28 0.17 649.21 0.1 648.18-0.15 647.16-0.39 646.13-0.88 645.11-1.37 643.89-2.2Z" opacity="1" transform="matrix(1,0,0,1,0,0)" fill="#ff4145" class="slogan-text-1" data-fill-palette-color="secondary" id="text-1"></path></svg></g></svg></g></svg></g></svg></g><g transform="matrix(1,0,0,1,106.9893527362262,0)"><svg viewBox="0 0 183.51889452754753 174.3829126282298" height="174.3829126282298" width="183.51889452754753"><g><svg xmlns="http://www.w3.org/2000/svg" data-name="Layer 1" viewBox="0 0 128.00062704264013 121.62846893448773" x="0" y="0" id="icon-0" width="183.51889452754753" height="174.3829126282298" class="icon-icon-0" data-fill-palette-color="accent"><path d="M73.549 85.157A2 2 0 0 0 72.017 82.78 29 29 0 0 0 69.889 82.392 2 2 0 0 0 69.367 86.357C69.374 86.358 70.09 86.455 71.171 86.69A2 2 0 0 0 71.596 86.734 2 2 0 0 0 73.549 85.157" fill="#e3fcbf" data-fill-palette-color="accent"></path><path d="M83.793 97.519A2 2 0 0 0 81.089 98.349 20 20 0 0 1 78.816 101.66 2 2 0 1 0 81.896 104.21 24 24 0 0 0 84.625 100.224 2 2 0 0 0 83.793 97.519" fill="#e3fcbf" data-fill-palette-color="accent"></path><path d="M68.92 113.033A2 2 0 0 0 71.719 113.441 92 92 0 0 0 75.287 110.646 2 2 0 0 0 72.737 107.564 86 86 0 0 1 69.327 110.234 2 2 0 0 0 68.92 113.034" fill="#e3fcbf" data-fill-palette-color="accent"></path><path d="M84.723 89.785A12.5 12.5 0 0 0 80.913 86.187 2 2 0 0 0 78.767 89.562 8.6 8.6 0 0 1 81.379 91.98 2 2 0 1 0 84.723 89.785" fill="#e3fcbf" data-fill-palette-color="accent"></path><path d="M61.502 119.958A2 2 0 0 0 62.562 119.652Q63.437 119.104 64.272 118.57A2 2 0 0 0 62.11 115.202Q61.292 115.728 60.437 116.264A2 2 0 0 0 61.502 119.958" fill="#e3fcbf" data-fill-palette-color="accent"></path><path d="M64 0A64.064 64.064 0 0 0 0.06 61.78 2 2 0 0 1 0.153 61.55C0.13 61.926 0.096 62.3 0.08 62.68 0.068 62.634 0.048 62.59 0.04 62.54 0.03 63.03 0 63.51 0 64 0 64.35 0.015 64.697 0.02 65.045 0.017 65.323 0 65.597 0 65.875A2.2 2.2 0 0 0 0.045 66.315 63.47 63.47 0 0 0 11.52 100.55L38.9 92.46A121 121 0 0 0 50.65 88.49S37.645 85.86 37.501 85.83A5.998 5.998 0 0 1 33.547 76.876 6.03 6.03 0 0 1 38.37 73.96C50.78 73.32 63.45 73.76 66.92 73.96A0.3 0.3 0 0 1 67.02 73.97 2 2 0 0 1 66.06 73.5L47.02 56.64 42.49 58.27A1.96 1.96 0 0 1 41.14 58.27L36.25 56.52 31.36 58.27A1.96 1.96 0 0 1 30.01 58.27L25.12 56.52 20.24 58.27A2 2 0 0 1 18.88 58.27L13.33 56.27 4.198 63.06C4.278 61.262 4.442 59.487 4.668 57.731L30.33 38.65A1.99 1.99 0 0 1 32.85 38.75L59.14 62.03 84.47 42.98A2 2 0 0 1 86.8 42.92L118.33 64.43A2.005 2.005 0 0 1 118.86 67.21 2.03 2.03 0 0 1 117.2 68.08 1.93 1.93 0 0 1 116.08 67.73L101.24 57.61 97.24 59.24A2 2 0 0 1 96.48 59.39 1.9 1.9 0 0 1 95.73 59.24L91.58 57.55 87.44 59.24A2 2 0 0 1 85.92 59.24L81.79 57.55 77.65 59.24A1.98 1.98 0 0 1 76.14 59.24L71.84 57.48 62.2 64.74 68.71 70.5A2.007 2.007 0 0 1 68.88 73.33 1.97 1.97 0 0 1 67.49 73.99C86.5 75.15 109.95 78.87 122.66 89.54A63.2 63.2 0 0 0 127.938 66.37 2.2 2.2 0 0 0 128 65.874C128 65.551 127.98 65.233 127.976 64.91 127.98 64.606 128 64.305 128 64A64.07 64.07 0 0 0 64 0M78.98 19.3A3.4 3.4 0 0 1 77.93 22.01L70.01 27.33 72.04 40.06 65.43 30.21 57.66 34.68A4.06 4.06 0 0 1 55.92 38.8L50.34 30.48A4.06 4.06 0 0 1 52.61 29.79 4 4 0 0 1 53.37 29.86 4.2 4.2 0 0 1 54.81 30.43L61.88 24.94 55.27 15.1 66.28 21.79 74.2 16.47A2.06 2.06 0 0 1 75.36 16.16 8.3 8.3 0 0 1 78.87 17.36 10.7 10.7 0 0 1 78.98 19.3" fill="#e3fcbf" data-fill-palette-color="accent"></path><path d="M57.59 89.56C54.35 91.56 48.27 93.89 40.03 96.3L14.08 103.97 1.43 107.71A2.014 2.014 0 0 0 0.332 110.721 2.05 2.05 0 0 0 2.57 111.54L41.16 100.14C45.002 99.013 48.846 97.865 52.565 96.371 56.041 94.975 60.545 93.261 62.95 90.27A5.4 5.4 0 0 0 63.86 88.73 7.3 7.3 0 0 1 65.82 90.42C67.955 92.982 64.345 96.147 62.524 97.627A55 55 0 0 1 55.497 102.11C44.487 108.521 32.145 112.991 20.047 116.877L19.35 117.1C18.41 117.4 17.042 117.583 16.41 118.418A2 2 0 0 0 18.59 121.54C18.61 121.54 18.82 121.47 19.21 121.35 19.4 121.29 19.6 121.23 19.81 121.16A247 247 0 0 0 47.068 110.91 90 90 0 0 0 62.755 102.269C66.14 99.826 70.593 96.477 70.44 91.776 70.288 87.09 65.163 84.58 61.38 83.15A16.7 16.7 0 0 0 58.54 81.68C62.24 81.75 65.09 81.87 66.45 81.95 66.89 81.98 67.33 82 67.77 82.03 67.83 82.03 67.88 82.04 67.94 82.04 71.34 82.24 74.72 82.48 78.06 82.92 78.12 82.93 78.18 82.93 78.23 82.94A58.5 58.5 0 0 1 89.74 85.53C94.14 87.04 98.99 89.04 102.73 92.14A19 19 0 0 1 105.85 95.36 10.5 10.5 0 0 1 107.72 99.1C109.1 104.46 105.34 110.85 96.54 118.08A2.01 2.01 0 0 0 96.27 120.9 2.03 2.03 0 0 0 99.08 121.17C109.19 112.86 113.4 105.1 111.6 98.1A13 13 0 0 0 110.73 95.72 19.7 19.7 0 0 0 104.51 88.62C111.21 91.05 116.31 94.07 119.58 97.6 119.83 97.87 120.07 98.15 120.3 98.43A17 17 0 0 1 121.55 100.13C124.58 104.85 124.81 110.32 122.27 116.87 121.348 119.222 125.053 120.687 126 118.32 128.99 110.6 128.63 103.76 124.91 97.97 118.685 89.944 110.065 85.83 100.43 83.08 89.7 80.02 77.44 78.58 66.68 77.95 63.28 77.75 50.85 77.33 38.66 77.95A2.11 2.11 0 0 0 36.715 79.683Q36.705 79.762 36.7 79.841C36.637 80.97 37.444 81.559 38.37 81.93L53.25 84.94C54.67 85.27 55.95 85.6 57.11 85.94A1.995 1.995 0 0 1 57.59 89.56" fill="#e3fcbf" data-fill-palette-color="accent"></path><path d="M81.031 53.539A2 2 0 0 1 82.545 53.539L86.682 55.229 90.824 53.54A2 2 0 0 1 92.336 53.539L96.48 55.23 97.274 54.907 85.732 47.035 75.562 54.685 76.894 55.229Z" fill="#e3fcbf" data-fill-palette-color="accent"></path><path d="M17.182 53.41L19.56 54.264 24.446 52.508A2 2 0 0 1 25.8 52.508L30.683 54.265 35.57 52.508A2 2 0 0 1 36.923 52.508L41.814 54.265 43.608 53.621 31.413 42.824Z" fill="#e3fcbf" data-fill-palette-color="accent"></path></svg></g></svg></g><g></g></svg></g><defs></defs></svg><rect width="267.6295930614315" height="247.2" fill="none" stroke="none" visibility="hidden"></rect></g></svg></g></svg>