<svg xmlns="http://www.w3.org/2000/svg" version="1.1" xmlns:xlink="http://www.w3.org/1999/xlink" xmlns:svgjs="http://svgjs.dev/svgjs" width="1500" height="939" viewBox="0 0 1500 939"><g transform="matrix(1,0,0,1,-0.9090909090909918,-1.5145161290323017)"><svg viewBox="0 0 396 248" data-background-color="#13472e" preserveAspectRatio="xMidYMid meet" height="939" width="1500" xmlns="http://www.w3.org/2000/svg" xmlns:xlink="http://www.w3.org/1999/xlink"><g id="tight-bounds" transform="matrix(1,0,0,1,0.2400000000000091,0.4000000000000057)"><svg viewBox="0 0 395.52 247.2" height="247.2" width="395.52"><g><svg></svg></g><g><svg viewBox="0 0 395.52 247.2" height="247.2" width="395.52"><g transform="matrix(1,0,0,1,75.54432,99.90733012918068)"><svg viewBox="0 0 244.43135999999998 47.38533974163864" height="47.38533974163864" width="244.43135999999998"><g><svg viewBox="0 0 244.43135999999998 47.38533974163864" height="47.38533974163864" width="244.43135999999998"><g><svg viewBox="0 0 244.43136 47.385339741638646" height="47.38533974163864" width="244.43135999999998"><g><svg viewBox="0 0 244.43136 47.385339741638646" height="47.385339741638646" width="244.43136"><g id="textblocktransform"><svg viewBox="0 0 244.43136 47.385339741638646" height="47.385339741638646" width="244.43136" id="textblock"><g><svg viewBox="0 0 244.43136 47.385339741638646" height="47.385339741638646" width="244.43136"><g transform="matrix(1,0,0,1,0,0)"><svg width="244.43136" viewBox="2.69 -41.31 275.89 53.49" height="47.385339741638646" data-palette-color="#92b19f"><path d="M18.26-16.7L18.26-16.7 10.67-16.41 9.52-6.4 18.87-6.71Q19.51-6.69 19.51-6.08L19.51-6.08 18.87-1.03Q18.82-0.51 18.24-0.39L18.24-0.39 3.22 0.1Q2.69 0.1 2.69-0.37L2.69-0.37 6.91-37.3Q7.01-37.82 7.54-37.87L7.54-37.87 20.92-38.33Q21.53-38.26 21.53-37.67L21.53-37.67 20.92-32.62Q20.85-32.01 20.29-31.96L20.29-31.96 12.43-31.74 11.38-22.66 18.9-22.92Q19.53-22.9 19.53-22.29L19.53-22.29 18.9-17.31Q18.8-16.75 18.26-16.7ZM46.34-28.88L46.34-28.88 43.16-0.73Q43.09-0.1 42.53-0.07L42.53-0.07 37.6 0.1Q37.08 0.05 37.08-0.37L37.08-0.37 37.55-3.69Q36.42-1.78 35.09-0.76 33.76 0.27 32.1 0.27 30.44 0.27 29.27-0.31 28.1-0.88 27.35-1.82 26.61-2.76 26.14-4.08L26.14-4.08Q25.29-6.42 25.29-10.49 25.29-14.55 25.84-17.38 26.39-20.21 26.8-21.69 27.22-23.17 27.91-24.73 28.61-26.29 29.49-27.34L29.49-27.34Q31.49-29.74 34.54-29.74L34.54-29.74Q36.81-29.74 38.01-28.65 39.21-27.56 40.01-25.44L40.01-25.44 40.31-28.76Q40.35-29.3 40.92-29.35L40.92-29.35 45.7-29.52Q46.34-29.47 46.34-28.88ZM31.44-11.18L31.44-11.18Q31.44-5.35 34.57-5.35L34.57-5.35Q35.94-5.35 36.79-6.6 37.64-7.86 38.27-11.65 38.89-15.43 38.89-17.16 38.89-18.9 38.86-19.36 38.84-19.82 38.77-20.59 38.69-21.36 38.5-21.89 38.3-22.41 37.99-22.95L37.99-22.95Q37.35-24 35.94-24 34.52-24 33.69-22.74 32.86-21.48 32.39-19.38L32.39-19.38Q31.44-14.89 31.44-11.18ZM63.01 0.88L63.01 0.88 63.64-4.37Q62.42-2.12 61.04-0.93 59.66 0.27 57.92 0.27 56.17 0.27 55-0.31 53.83-0.88 53.08-1.82 52.34-2.76 51.87-4.08L51.87-4.08Q51.02-6.42 51.02-10.49 51.02-14.55 51.57-17.38 52.12-20.21 52.53-21.69 52.95-23.17 53.64-24.73 54.34-26.29 55.22-27.34L55.22-27.34Q57.22-29.74 60.27-29.74L60.27-29.74Q62.52-29.74 63.72-28.66 64.91-27.59 65.74-25.46L65.74-25.46 65.99-28.74Q66.04-29.32 66.62-29.35L66.62-29.35 71.55-29.52Q72.07-29.44 72.07-29L72.07-29 68.75 0.61Q68.04 7.18 64.67 9.96L64.67 9.96Q62.01 12.18 57.51 12.18L57.51 12.18Q54.66 12.18 51.73 11.52L51.73 11.52Q51.31 11.45 51.17 11.32 51.02 11.18 51.02 10.82L51.02 10.82 51.51 6.4Q51.58 5.74 52.05 5.74L52.05 5.74Q52.36 5.74 53.83 6.23 55.29 6.71 57.1 6.71 58.91 6.71 59.92 6.38 60.93 6.05 61.54 5.27L61.54 5.27Q62.62 3.96 63.01 0.88ZM57.17-11.18L57.17-11.18Q57.17-5.35 60.3-5.35L60.3-5.35Q61.66-5.35 62.52-6.6 63.37-7.86 64-11.65 64.62-15.43 64.62-17.16 64.62-18.9 64.59-19.36 64.57-19.82 64.5-20.59 64.42-21.36 64.23-21.89 64.03-22.41 63.72-22.95L63.72-22.95Q63.08-24 61.66-24 60.25-24 59.42-22.74 58.59-21.48 58.12-19.38L58.12-19.38Q57.17-14.89 57.17-11.18ZM86.56-40.65L86.56-40.65 82.07-0.76Q82.02-0.42 81.9-0.27 81.78-0.12 81.44-0.1L81.44-0.1 76.53 0.1Q75.99 0.05 75.99-0.37L75.99-0.37 80.51-40.48Q80.56-40.82 80.68-40.97 80.8-41.11 81.14-41.14L81.14-41.14 85.93-41.31Q86.56-41.24 86.56-40.65ZM90.9-4.58Q90.32-6.03 90.11-7.46 89.91-8.89 89.91-11.38 89.91-13.87 90.44-17.53L90.44-17.53Q92.23-29.74 101.53-29.74L101.53-29.74Q105.12-29.74 107.02-27.27 108.93-24.8 108.93-20.87 108.93-16.94 108.44-13.23L108.44-13.23Q108.36-12.57 107.68-12.55L107.68-12.55 95.62-12.13Q95.6-11.77 95.6-11.16L95.6-11.16Q95.6-8.4 96.56-6.79 97.52-5.18 99.48-5.18 101.43-5.18 103.1-5.75 104.78-6.32 105.07-6.32 105.36-6.32 105.58-6.13 105.8-5.93 105.8-5.59L105.8-5.59 105.31-1.29Q105.29-0.93 105.18-0.82 105.07-0.71 104.75-0.59L104.75-0.59Q101.8 0.27 99.06 0.27 96.33 0.27 94.81-0.39 93.3-1.05 92.39-2.09 91.47-3.13 90.9-4.58ZM96.21-18.26L96.21-18.26 95.99-16.7 102.36-17.02Q102.77-17.04 102.9-17.16L102.9-17.16Q103.26-17.53 103.26-19.18 103.26-20.83 103.15-21.5 103.04-22.17 102.77-22.88L102.77-22.88Q102.21-24.44 100.86-24.44 99.5-24.44 98.72-23.97L98.72-23.97Q96.99-22.9 96.21-18.26ZM126.25-37.77L126.25-37.77 142.07-38.33Q142.64-38.31 142.64-37.72L142.64-37.72 142-32.71Q141.95-32.35 141.84-32.2 141.73-32.06 141.39-32.03L141.39-32.03 136.65-31.86 133.09-0.68Q133.02-0.1 132.46-0.07L132.46-0.07 127.38 0.1Q126.89 0.1 126.89-0.37L126.89-0.37 130.48-31.67 125.62-31.52Q125.01-31.54 125.01-32.08L125.01-32.08 125.62-37.16Q125.64-37.74 126.25-37.77ZM152.17 0.27Q147.83 0.27 145.82-2.33 143.81-4.93 143.81-9.91L143.81-9.91Q143.81-12.23 144.32-15.97 144.83-19.7 145.27-21.4 145.71-23.1 146.52-24.72 147.32-26.34 148.42-27.39L148.42-27.39Q150.84-29.74 154.96-29.74L154.96-29.74Q160.82-29.74 162.56-25.44L162.56-25.44Q163.48-23.14 163.48-19.89 163.48-16.63 162.98-13.13 162.48-9.64 162.04-7.97 161.6-6.3 160.81-4.7 160.02-3.1 158.92-2.05L158.92-2.05Q156.5 0.27 152.17 0.27ZM156.48-10.42L156.48-10.42Q156.75-11.72 157.17-15.27 157.6-18.82 157.6-20.53L157.6-20.53Q157.6-24.68 154.6-24.68L154.6-24.68Q153.18-24.68 152.27-23.34 151.35-22 150.79-18.87L150.79-18.87Q149.67-12.52 149.67-8.57 149.67-4.61 152.64-4.61L152.64-4.61Q154.06-4.61 155-5.97 155.94-7.32 156.48-10.42ZM180.94-0.51L180.94-0.51 181.13-2.39Q178.18 0.27 174.44 0.27L174.44 0.27Q171.64 0.27 170.3-1.78 168.97-3.83 168.97-6.91L168.97-6.91Q168.97-7.42 169.07-8.3L169.07-8.3 171.39-28.74Q171.46-29.32 172-29.35L172-29.35 176.93-29.54Q177.45-29.49 177.45-29.03L177.45-29.03 175.25-9.77Q175.18-9.13 175.18-8.59L175.18-8.59Q175.18-6.54 175.97-5.86 176.76-5.18 178.36-5.18 179.96-5.18 181.52-5.79L181.52-5.79 184.11-28.74Q184.18-29.32 184.72-29.35L184.72-29.35 189.65-29.52Q190.17-29.47 190.17-29L190.17-29 186.99-0.76Q186.92-0.17 186.33-0.12L186.33-0.12 181.57 0.1Q180.94 0.07 180.94-0.51ZM210.65-23.29L210.65-23.29 208.03-23.56Q204.86-23.56 202.71-22.29L202.71-22.29 200.29-0.76Q200.2-0.15 199.68-0.1L199.68-0.1 194.75 0.1Q194.22 0.05 194.22-0.37L194.22-0.37 197.44-28.76Q197.54-29.3 198.05-29.35L198.05-29.35 202.81-29.52Q203.47-29.49 203.47-28.88L203.47-28.88 203.18-26.37Q204.74-27.95 206.2-28.85 207.67-29.74 209.14-29.74 210.62-29.74 211.4-29.61L211.4-29.61Q211.92-29.52 211.92-28.93L211.92-28.93Q211.92-27.25 211.35-23.93L211.35-23.93Q211.23-23.29 210.65-23.29ZM220.14-32.18Q218.63-32.18 217.72-33.13 216.82-34.08 216.82-35.58 216.82-37.08 218.03-38.27 219.24-39.45 220.75-39.45 222.27-39.45 223.2-38.5 224.14-37.55 224.14-36.05 224.14-34.55 222.9-33.36 221.65-32.18 220.14-32.18ZM222.85-28.88L222.85-28.88 219.68-0.73Q219.63-0.39 219.51-0.24 219.38-0.1 219.04-0.07L219.04-0.07 214.14 0.1Q213.6 0.05 213.6-0.37L213.6-0.37 216.82-28.76Q216.92-29.3 217.43-29.35L217.43-29.35 222.19-29.52Q222.85-29.47 222.85-28.88ZM240.28-23.83L240.28-23.83 237.52-23.95Q236.35-23.95 235.68-23.41 235.01-22.88 235.01-21.86 235.01-20.85 235.37-19.63L235.37-19.63Q235.86-17.99 237.07-15.82 238.28-13.65 238.74-12.74L238.74-12.74Q240.16-9.94 240.16-7.4L240.16-7.4Q240.16-3.71 238-1.72 235.84 0.27 231.44 0.27L231.44 0.27Q229.27 0.27 227.98 0.04 226.68-0.2 226.55-0.33 226.41-0.46 226.41-0.76L226.41-0.76 227.05-5.27Q227.1-5.88 227.47-5.88 227.85-5.88 228.93-5.62 230-5.35 230.81-5.35L230.81-5.35Q233.79-5.35 233.79-7.71L233.79-7.71Q233.79-9.4 233.07-10.86 232.35-12.33 231.5-13.89 230.66-15.45 230.2-16.39 229.73-17.33 229.23-18.99 228.73-20.65 228.73-22.12L228.73-22.12Q228.73-25.54 230.77-27.64 232.81-29.74 236.72-29.74L236.72-29.74Q239.23-29.74 240.65-29.49L240.65-29.49Q241.26-29.39 241.26-28.86L241.26-28.86 240.72-24.51Q240.72-23.83 240.28-23.83ZM254.41-28.88L254.41-28.88 254.14-26.61Q257.73-29.74 261.04-29.74 264.35-29.74 265.67-26.54L265.67-26.54Q269.33-29.74 272.77-29.74L272.77-29.74Q277.02-29.74 278.24-25.24L278.24-25.24Q278.58-24 278.58-22.92 278.58-21.85 278.51-21.19L278.51-21.19 276.17-0.73Q276.07-0.12 275.56-0.07L275.56-0.07 270.62 0.1Q270.09 0.05 270.09-0.37L270.09-0.37 272.31-19.7Q272.41-20.53 272.41-20.85L272.41-20.85Q272.41-22.85 271.45-23.57 270.5-24.29 269.1-24.29 267.69-24.29 266.3-23.78L266.3-23.78Q266.38-23.19 266.38-22.52 266.38-21.85 266.3-21.19L266.3-21.19 263.96-0.73Q263.86-0.12 263.35-0.07L263.35-0.07 258.42 0.1Q257.88 0.05 257.88-0.37L257.88-0.37 260.1-19.7Q260.18-20.34 260.18-20.85L260.18-20.85Q260.18-22.85 259.24-23.57 258.3-24.29 256.84-24.29 255.39-24.29 253.83-23.68L253.83-23.68 251.24-0.76Q251.14-0.15 250.63-0.1L250.63-0.1 245.7 0.1Q245.16 0.05 245.16-0.37L245.16-0.37 248.38-28.76Q248.48-29.3 248.99-29.35L248.99-29.35 253.75-29.52Q254.41-29.49 254.41-28.88Z" opacity="1" transform="matrix(1,0,0,1,0,0)" fill="#92b19f" class="wordmark-text-0" data-fill-palette-color="primary" id="text-0"></path></svg></g></svg></g></svg></g></svg></g></svg></g></svg></g></svg></g><path d="M206.318 93.907L206.318 32.91 387.699 32.91 387.699 214.29 206.318 214.29 206.318 153.293 210.591 153.293 210.591 210.017 383.426 210.017 383.426 37.183 210.591 37.183 210.591 93.907Z" fill="#92b19f" stroke="transparent" data-fill-palette-color="tertiary"></path></svg></g><defs></defs></svg><rect width="395.52" height="247.2" fill="none" stroke="none" visibility="hidden"></rect></g></svg></g></svg>