<?xml version="1.0" standalone="no"?><svg xmlns="http://www.w3.org/2000/svg" viewBox="0 0 1440 320"><path fill="#5000ca" fill-opacity="1" d="M0,192L21.8,186.7C43.6,181,87,171,131,154.7C174.5,139,218,117,262,101.3C305.5,85,349,75,393,80C436.4,85,480,107,524,133.3C567.3,160,611,192,655,213.3C698.2,235,742,245,785,213.3C829.1,181,873,107,916,69.3C960,32,1004,32,1047,58.7C1090.9,85,1135,139,1178,160C1221.8,181,1265,171,1309,154.7C1352.7,139,1396,117,1418,106.7L1440,96L1440,320L1418.2,320C1396.4,320,1353,320,1309,320C1265.5,320,1222,320,1178,320C1134.5,320,1091,320,1047,320C1003.6,320,960,320,916,320C872.7,320,829,320,785,320C741.8,320,698,320,655,320C610.9,320,567,320,524,320C480,320,436,320,393,320C349.1,320,305,320,262,320C218.2,320,175,320,131,320C87.3,320,44,320,22,320L0,320Z"></path></svg>