<svg xmlns="http://www.w3.org/2000/svg" version="1.1" xmlns:xlink="http://www.w3.org/1999/xlink" xmlns:svgjs="http://svgjs.dev/svgjs" width="1500" height="1500" viewBox="0 0 1500 1500"><rect width="1500" height="1500" fill="#1f2d5a"></rect><g transform="matrix(0.6666666666666666,0,0,0.6666666666666666,249.39393939393932,613.0358777886511)"><svg viewBox="0 0 396 108" data-background-color="#1f2d5a" preserveAspectRatio="xMidYMid meet" height="409" width="1500" xmlns="http://www.w3.org/2000/svg" xmlns:xlink="http://www.w3.org/1999/xlink"><g id="tight-bounds" transform="matrix(1,0,0,1,0.24000000000003752,0.24984791745364987)"><svg viewBox="0 0 395.5199999999999 107.50030416509271" height="107.50030416509271" width="395.5199999999999"><g><svg viewBox="0 0 658.4429800379157 178.96141947169806" height="107.50030416509271" width="395.5199999999999"><g transform="matrix(1,0,0,1,260.94538003791587,40.404466277743225)"><svg viewBox="0 0 397.4975999999999 98.15248691621161" height="98.15248691621161" width="397.4975999999999"><g id="textblocktransform"><svg viewBox="0 0 397.4975999999999 98.15248691621161" height="98.15248691621161" width="397.4975999999999" id="textblock"><g><rect width="397.4975999999999" height="5.8414917568839" x="0" y="71.65650932540953" fill="#fbfbfb" opacity="1" stroke-width="0" stroke="transparent" fill-opacity="1" class="rect-yte-0" data-fill-palette-color="primary" rx="1%" id="yte-0" data-palette-color="#fbfbfb"></rect></g><g transform="matrix(1,0,0,1,0.9887999999999693,0)"><svg viewBox="0 0 395.52 64.77517086834735" height="64.77517086834735" width="395.52"><g transform="matrix(1,0,0,1,0,0)"><svg width="395.52" viewBox="-2.15 -42.9 267.72999999999996 43.85" height="64.77517086834735" data-palette-color="#fbfbfb"><path d="M6.3-33.3Q9.75-33.15 14.23-32.7 18.7-32.25 20.6-32.25 22.5-32.25 23.45-32.55L23.45-32.55Q25.75-34.75 26.7-35.9L26.7-35.9 27.5-35.3Q24.85-31.85 24.3-28.1L24.3-28.1Q19.35-29.45 15.25-29.75L15.25-29.75Q14.9-24.3 14.9-15.43 14.9-6.55 15.55-1.75L15.55-1.75Q18.05-1.5 21.05-0.8L21.05-0.8 20.9 0.4Q17.2 0 12.88 0 8.55 0 5.9 0.4L5.9 0.4 5.7-0.85Q7.95-1.55 10.5-1.9L10.5-1.9Q11.05-6 11.05-14.8L11.05-14.8 11.05-17.75Q11.05-22.7 10.45-29.9L10.45-29.9 9.15-29.9Q3.25-29.9 1.6-28.3L1.6-28.3Q1.25-27.6 1.25-26.1 1.25-24.6 1.75-24.05L1.75-24.05 1.7-23.7Q0.45-22.95-0.8-21.6L-0.8-21.6Q-1.4-21.65-1.78-22.1-2.15-22.55-2.15-23.15L-2.15-23.15Q-2.15-25.6 0.8-29 3.75-32.4 6.3-33.3L6.3-33.3ZM39.1 0.6Q34.15 0.6 31.1-2.53 28.05-5.65 28.05-10.9 28.05-16.15 31.25-20.75 34.45-25.35 39.6-26.65L39.6-26.65Q44.75-26.65 47.45-23.73 50.15-20.8 50.15-15.4 50.15-10 47.22-5.65 44.3-1.3 39.1 0.6L39.1 0.6ZM38.25-23.6L38.25-23.6Q36-23.6 34.35-22.35L34.35-22.35Q32.3-18.85 32.3-13.55L32.3-13.55Q32.3-7.45 35.7-4.2L35.7-4.2Q37.5-2.45 39.95-2.45 42.4-2.45 43.9-3.75L43.9-3.75Q45.9-7.25 45.9-12.3 45.9-17.35 44.1-20.48 42.3-23.6 38.25-23.6ZM75.3-14.2L75.3-14.2 75.3-11.85Q75.3-5 75.8-1.6L75.8-1.6Q78.09-1.3 79.59-0.9L79.59-0.9 79.45 0.35Q77 0 74.42 0 71.84 0 70.9 0.15L70.9 0.15 70.7-0.5Q71.15-1 71.3-3.35L71.3-3.35Q68.7-0.65 65.3 0.6L65.3 0.6Q56.7 0.6 56.7-9.65L56.7-9.65Q56.7-11.9 57.05-16.85 57.4-21.8 57.4-22.65 57.4-23.5 57.1-24.3L57.1-24.3 57.1-24.35Q55-24.7 53.75-25.1L53.75-25.1 53.95-26.45Q56.85-26.05 59.2-26.05 61.55-26.05 63.05-26.3L63.05-26.3 63.25-25.45Q61.45-24.5 61.15-22L61.15-22Q60.55-17.2 60.55-12.15 60.55-7.1 61.72-4.98 62.9-2.85 66.12-2.85 69.34-2.85 71.34-4.7L71.34-4.7Q71.55-8.7 71.55-14.15 71.55-19.6 71.15-24.4L71.15-24.4Q68.9-24.65 67-25.15L67-25.15 67.15-26.4Q69.75-26.05 72.97-26.05 76.2-26.05 78.75-26.45L78.75-26.45 78.95-25.15Q77.55-24.7 75.8-24.4L75.8-24.4Q75.3-21.05 75.3-14.2ZM83.29-24.95L83.29-25.95 94.79-26.3Q99.29-26.3 101.54-24.98 103.79-23.65 103.79-20.15L103.79-20.15Q103.79-17.75 102.32-15.9 100.84-14.05 98.44-13.15L98.44-13.15 104.04-1.7Q105.74-1.4 107.24-1L107.24-1 107.04 0.35Q104.94 0 102.32 0 99.69 0 98.19 0.25L98.19 0.25 97.99-0.55Q98.64-1.2 98.64-2.7L98.64-2.7Q98.64-5.75 95.14-12.5L95.14-12.5Q94.09-12.7 92.69-12.7L92.69-12.7 92.79-14.15 93.29-14.15Q99.19-14.15 99.19-19.55L99.19-19.55Q99.19-24.55 94.14-24.55L94.14-24.55Q92.44-24.55 91.09-24L91.09-24Q90.74-20.7 90.74-12.7 90.74-4.7 91.19-1.65L91.19-1.65Q93.39-1.4 95.29-0.9L95.29-0.9 95.14 0.35Q92.54 0 89.32 0 86.09 0 83.54 0.4L83.54 0.4 83.34-0.9Q84.74-1.35 86.49-1.65L86.49-1.65Q86.99-5.4 86.99-13.33 86.99-21.25 86.54-24.3L86.54-24.3Q84.59-24.95 83.29-24.95L83.29-24.95ZM109.14-14.4L111.44-14.4Q115.84-14.4 120.04-14.9L120.04-14.9 120.44-14.65 120.14-12.55 109.29-11.8 108.84-12.1 109.14-14.4ZM128.29-12.35Q128.44-7.9 129.94-5.4 131.44-2.9 135.04-2.9 138.64-2.9 141.69-5.95L141.69-5.95 142.39-5.25Q139.04-1 134.34 0.6L134.34 0.6Q129.49 0.6 126.74-2.48 123.99-5.55 123.99-10.78 123.99-16 127.24-20.6 130.49-25.2 135.54-26.65L135.54-26.65Q139.19-26.65 143.79-25.9L143.79-25.9 143.74-24.8Q142.79-24.8 141.94-24.45L141.94-24.45Q140.99-22.2 140.69-19.1L140.69-19.1 139.44-19.1Q139.04-20.8 139.04-22.6L139.04-22.6Q137.14-23.55 134.54-23.55 131.94-23.55 130.24-22.15L130.24-22.15Q128.54-19.05 128.29-14.75L128.29-14.75Q130.39-14.4 132.79-14.4L132.79-14.4Q136.94-14.4 137.79-16.15L137.79-16.15 138.84-16Q138.39-14.5 138.39-13.05 138.39-11.6 138.74-9.5L138.74-9.5 137.54-9.3Q136.99-10.8 136.74-12.4L136.74-12.4Q134.74-12.6 132.76-12.6 130.79-12.6 128.29-12.35L128.29-12.35ZM145.84-14.4L148.14-14.4Q152.54-14.4 156.74-14.9L156.74-14.9 157.14-14.65 156.84-12.55 145.99-11.8 145.54-12.1 145.84-14.4ZM187.33-32.6L187.33-32.6 187.33-14.8Q187.33-5.45 187.98-1.75L187.98-1.75Q190.63-1.5 193.48-0.8L193.48-0.8 193.33 0.4Q190.13 0 185.76 0 181.38 0 178.33 0.4L178.33 0.4 178.13-0.85Q180.38-1.55 182.93-1.9L182.93-1.9Q183.43-6.95 183.48-16.4L183.48-16.4Q179.78-16.75 176.13-16.75 172.48-16.75 168.78-16.4L168.78-16.4Q168.83-5.7 169.43-1.75L169.43-1.75Q172.08-1.5 174.93-0.8L174.93-0.8 174.78 0.4Q171.08 0 166.76 0 162.43 0 159.78 0.4L159.78 0.4 159.58-0.85Q161.83-1.55 164.38-1.9L164.38-1.9Q164.93-6 164.93-14.8L164.93-14.8 164.93-17.75Q164.93-24.3 164.38-29.8L164.38-29.8 164.33-29.8Q158.43-29.8 156.78-28.2L156.78-28.2Q156.43-27.5 156.43-26 156.43-24.5 156.93-23.95L156.93-23.95 156.88-23.6Q155.63-22.85 154.38-21.5L154.38-21.5Q153.78-21.55 153.41-22 153.03-22.45 153.03-23.05L153.03-23.05Q153.03-25.5 155.98-28.9 158.93-32.3 161.48-33.2L161.48-33.2Q161.88-33.2 165.08-32.88 168.28-32.55 170.11-32.55 171.93-32.55 173.48-32.85L173.48-32.85 173.68-31.6Q171.73-30.85 169.23-30.25L169.23-30.25Q168.88-26.5 168.78-19.1L168.78-19.1Q172.58-18.6 176.33-18.6 180.08-18.6 183.48-19.05L183.48-19.05Q183.43-28 183.03-32.65L183.03-32.65Q183.98-35.7 187.66-39.3 191.33-42.9 194.08-42.9L194.08-42.9Q194.68-42.9 195.16-42.53 195.63-42.15 195.63-41.55L195.63-41.55Q194.28-40.3 193.53-39.05L193.53-39.05 193.18-39Q192.63-39.5 191.13-39.5 189.63-39.5 188.93-39.15L188.93-39.15Q187.33-37.3 187.33-32.6ZM203.83-24.4L203.83-24.4Q203.43-21.7 203.43-13.35 203.43-5 203.88-1.65L203.88-1.65Q206.13-1.4 208.03-0.9L208.03-0.9 207.88 0.35Q205.28 0 202.06 0 198.83 0 196.28 0.4L196.28 0.4 196.08-0.9Q197.48-1.35 199.23-1.65L199.23-1.65Q199.68-5.25 199.68-11.85L199.68-11.85 199.68-14.2Q199.68-20.8 199.18-24.4L199.18-24.4Q197.43-24.7 196.03-25.15L196.03-25.15 196.23-26.45Q198.78-26.05 202.01-26.05 205.23-26.05 207.83-26.4L207.83-26.4 207.98-25.15Q206.08-24.65 203.83-24.4ZM223.63-0.9L223.48 0.35Q220.88 0 217.65 0 214.43 0 211.88 0.4L211.88 0.4 211.68-0.9Q213.28-1.4 214.68-1.65L214.68-1.65Q215.13-5.55 215.13-11.85L215.13-11.85 215.13-14.2Q215.13-20.9 214.63-24.5L214.63-24.5Q213.28-24.65 211.38-25.3L211.38-25.3 211.53-26.6Q214.38-26.05 217.5-26.05 220.63-26.05 221.98-26.4L221.98-26.4 222.08-25.55Q220.73-25.2 220.73-24.4L220.73-24.4Q220.73-23.8 221.9-21.88 223.08-19.95 224.18-18.15L224.18-18.15Q227.48-12.9 231.98-5.25L231.98-5.25 232.13-5.35 232.13-11.45Q232.13-18.15 231.43-21.53 230.73-24.9 229.03-25.45L229.03-25.45 229.13-26.3Q230.43-26.05 233.03-26.05 235.63-26.05 238.38-26.6L238.38-26.6 238.53-25.3Q236.48-24.65 235.08-24.5L235.08-24.5Q234.58-20.5 234.58-14.2L234.58-14.2 234.58-11.85Q234.58-4.25 235.08-1.55L235.08-1.55Q237.18-1.2 238.43-0.75L238.43-0.75 238.28 0.55Q235.78 0 233.58 0 231.38 0 230.18 0.2L230.18 0.2Q230.18-0.9 228.65-3.5 227.13-6.1 225.88-8.1L225.88-8.1Q221.83-14.65 217.93-21.4L217.93-21.4 217.73-21.3 217.73-14.6Q217.73-4.65 219.23-1.65L219.23-1.65Q221.48-1.4 223.63-0.9L223.63-0.9ZM242.23-24.7L242.23-25.95 253.73-26.3Q259.43-26.3 262.5-23.6 265.58-20.9 265.58-15.53 265.58-10.15 262.2-5.5 258.83-0.85 253.83 0.6L253.83 0.6Q252.53 0.6 250.45 0.13 248.38-0.35 247.03-0.9L247.03-0.9Q246.48-0.25 246.03 0.95L246.03 0.95 244.98 0.7Q245.93-3.75 245.93-11.88 245.93-20 245.48-24.05L245.48-24.05Q243.78-24.7 242.23-24.7L242.23-24.7ZM259.43-20.95Q258.53-22.65 256.9-23.6 255.28-24.55 253.35-24.55 251.43-24.55 250.03-24L250.03-24Q249.68-20.75 249.68-13.63 249.68-6.5 249.88-3.75L249.88-3.75Q252.38-2.6 255-2.6 257.63-2.6 259.18-3.95L259.18-3.95Q261.08-7.55 261.08-12.8L261.08-12.8Q261.08-17.7 259.43-20.95L259.43-20.95Z" opacity="1" transform="matrix(1,0,0,1,0,0)" fill="#fbfbfb" class="wordmark-text-0" data-fill-palette-color="primary" id="text-0"></path></svg></g></svg></g><g transform="matrix(1,0,0,1,0,84.37933953935561)"><svg viewBox="0 0 232.20979200000002 13.773147376855997" height="13.773147376855997" width="232.20979200000002"><g transform="matrix(1,0,0,1,0,0)"><svg width="232.20979200000002" viewBox="0.9 -37 636.38 37.75" height="13.773147376855997" data-palette-color="#fbfbfb"><path d="M34.4-19.75L34.4-19.75Q34.4-15.05 31.85-9.63 29.3-4.2 25.75-0.4L25.75-0.4Q24.5 0.25 22.95 0.75L22.95 0.75Q20.65 0.2 18.8-9.4L18.8-9.4Q16.45-4.35 12.8-0.4L12.8-0.4Q11.55 0.25 10 0.75L10 0.75Q9.15 0.55 8.43-0.65 7.7-1.85 6.68-5.83 5.65-9.8 4.85-14.95 4.05-20.1 3.6-21.8L3.6-21.8Q2.4-22.2 0.9-22.2L0.9-22.2 0.9-23.25Q4.25-23.4 8-24.25L8-24.25 8.35-24.05Q7.95-22.65 7.95-20.93 7.95-19.2 8.65-14.83 9.35-10.45 10.15-7.13 10.95-3.8 11.4-3.05 11.85-2.3 12.35-2.3L12.35-2.3Q15-5.8 16.23-9.28 17.45-12.75 17.45-16.35 17.45-19.95 16.55-21.8L16.55-21.8Q15.35-22.2 13.85-22.2L13.85-22.2 13.85-23.25Q16.8-23.05 21.15-23.05L21.15-23.05Q30.2-23.05 36.2-24.55L36.2-24.55 36.4-23.65Q35.75-23.15 34-22.25L34-22.25Q34.4-20.95 34.4-19.75ZM26.55-22.15L26.55-22.15Q22.5-22.15 20.9-21.15L20.9-21.15Q20.9-19.2 21.6-14.83 22.3-10.45 23.1-7.13 23.9-3.8 24.35-3.05 24.8-2.3 25.3-2.3L25.3-2.3Q27.95-5.8 29.18-9.28 30.4-12.75 30.4-17.1L30.4-17.1Q30.4-19.6 29.35-21.7L29.35-21.7Q27.9-22.15 26.55-22.15ZM48.3-2.85L48.3-2.85Q51.45-2.85 54.45-5.5L54.45-5.5 55-5Q52.15-1.1 47.7 0.75L47.7 0.75Q43.3 0.75 41.1-2 38.9-4.75 38.9-9.65 38.9-14.55 41.65-18.78 44.4-23 49-24.25L49-24.25Q52.35-24.25 53.7-22.93 55.05-21.6 55.05-18.25L55.05-18.25Q55.05-16.35 54.55-15L54.55-15Q55.6-14.6 57-14.6L57-14.6 56.95-13.55Q56.65-13.55 56.3-13.55L56.3-13.55Q50.7-13.55 42.9-11.9L42.9-11.9Q42.9-5.25 45.5-3.6L45.5-3.6Q46.6-2.85 48.3-2.85ZM51.05-15.25Q51.05-18.55 50.42-19.85 49.8-21.15 47.8-21.15 45.8-21.15 44.35-19.95L44.35-19.95Q43-17.15 42.9-13.2L42.9-13.2Q47-14.55 51.05-15.25L51.05-15.25ZM67.1-20.85L67-11.5Q67-10.05 67-6.93 67-3.8 67.3-1.5L67.3-1.5Q68.7-1.2 70.45-0.55L70.45-0.55 70.35 0.4Q67.55 0 65.05 0 62.55 0 60 0.3L60 0.3 59.85-0.65Q61.35-1.3 62.8-1.65L62.8-1.65Q63.25-4.85 63.3-11.5L63.3-11.5 63.4-20.85Q63.4-22.15 63.4-25.53 63.4-28.9 63.05-32.45L63.05-32.45Q61.75-32.85 60.35-32.85L60.35-32.85 60.35-33.9Q65.35-34.25 69.9-35.55L69.9-35.55 70.15-34.65Q69.2-33.9 67.8-33.2L67.8-33.2Q67.2-29.9 67.1-20.85L67.1-20.85ZM84.49-2.85L84.49-2.85Q87.24-2.85 90.19-5.5L90.19-5.5 90.69-5Q87.79-0.95 83.64 0.75L83.64 0.75Q79.29 0.75 77.19-2 75.09-4.75 75.09-9.7 75.09-14.65 77.89-18.85 80.69-23.05 85.19-24.25L85.19-24.25Q88.24-24.25 91.24-23.45L91.24-23.45 91.24-22.75Q89.29-20.35 89.09-17.5L89.09-17.5 87.99-17.5Q87.99-19.45 87.89-20.55L87.89-20.55Q85.84-21.15 83.84-21.15 81.84-21.15 80.54-19.95L80.54-19.95Q79.09-16.9 79.09-12.25L79.09-12.25Q79.09-5.25 81.64-3.6L81.64-3.6Q82.79-2.85 84.49-2.85ZM104.14 0.75Q99.79 0.75 96.99-2.18 94.19-5.1 94.19-9.85 94.19-14.6 97.07-18.82 99.94-23.05 104.64-24.25L104.64-24.25Q109.29-24.25 111.69-21.55 114.09-18.85 114.09-14.1 114.09-9.35 111.29-5.15 108.49-0.95 104.14 0.75L104.14 0.75ZM103.29-21.15L103.29-21.15Q101.19-21.15 99.84-19.95L99.84-19.95Q98.19-16.8 98.19-12.7 98.19-8.6 100.04-5.48 101.89-2.35 104.99-2.35L104.99-2.35Q107.09-2.35 108.49-3.6L108.49-3.6Q110.09-6.65 110.09-11.03 110.09-15.4 108.42-18.28 106.74-21.15 103.29-21.15ZM155.04-0.65L154.89 0.3Q152.49 0 150.81 0 149.14 0 147.74 0.1L147.74 0.1 147.74-0.6Q148.49-4.5 148.69-13.45L148.69-13.45Q148.69-13.85 148.69-14.25L148.69-14.25Q148.69-20.15 146.59-20.15L146.59-20.15Q144.79-20.15 142.19-17.7 139.59-15.25 138.69-13.15L138.69-13.15 138.49-1.55Q140.19-1.2 141.94-0.55L141.94-0.55 141.84 0.4Q139.04 0 137.29 0 135.54 0 134.14 0.1L134.14 0.1 134.14-0.6Q134.89-4.5 135.09-13.45L135.09-13.45Q135.09-13.85 135.09-14.25L135.09-14.25Q135.09-20.15 132.99-20.15L132.99-20.15Q131.19-20.15 128.61-17.7 126.04-15.25 125.14-13.15L125.14-13.15Q125.14-5.9 125.69-1.5L125.69-1.5Q127.04-1.2 128.84-0.55L128.84-0.55 128.74 0.4Q125.94 0 123.44 0 120.94 0 118.39 0.3L118.39 0.3 118.24-0.65Q119.74-1.3 121.19-1.65L121.19-1.65Q121.64-5.05 121.64-9.5L121.64-9.5 121.64-13.7Q121.64-18.3 121.29-21.85L121.29-21.85Q120.09-22.25 118.59-22.25L118.59-22.25 118.59-23.3Q121.79-23.45 125.34-24.25L125.34-24.25 125.69-24.05Q125.14-20.6 125.14-16.25L125.14-16.25 125.34-16.2Q126.94-18.55 129.54-21.03 132.14-23.5 134.24-24.25L134.24-24.25Q138.74-24.25 138.74-16.25L138.74-16.25 138.94-16.2Q140.54-18.55 143.14-21.03 145.74-23.5 147.84-24.25L147.84-24.25Q152.34-24.25 152.34-16.4L152.34-16.4Q152.34-16.05 152.34-15.7L152.34-15.7 152.09-1.65Q153.54-1.3 155.04-0.65L155.04-0.65ZM168.69-2.85L168.69-2.85Q171.84-2.85 174.84-5.5L174.84-5.5 175.39-5Q172.54-1.1 168.09 0.75L168.09 0.75Q163.69 0.75 161.49-2 159.29-4.75 159.29-9.65 159.29-14.55 162.04-18.78 164.79-23 169.39-24.25L169.39-24.25Q172.74-24.25 174.09-22.93 175.44-21.6 175.44-18.25L175.44-18.25Q175.44-16.35 174.94-15L174.94-15Q175.99-14.6 177.39-14.6L177.39-14.6 177.34-13.55Q177.04-13.55 176.69-13.55L176.69-13.55Q171.09-13.55 163.29-11.9L163.29-11.9Q163.29-5.25 165.89-3.6L165.89-3.6Q166.99-2.85 168.69-2.85ZM171.44-15.25Q171.44-18.55 170.81-19.85 170.19-21.15 168.19-21.15 166.19-21.15 164.74-19.95L164.74-19.95Q163.39-17.15 163.29-13.2L163.29-13.2Q167.39-14.55 171.44-15.25L171.44-15.25ZM195.58-9.75L195.58-9.75Q195.58-2.85 197.08-2.85L197.08-2.85Q199.83-2.85 202.78-5.5L202.78-5.5 203.28-5Q200.38-0.95 196.23 0.75L196.23 0.75Q193.38 0.75 192.58-1.85L192.58-1.85Q191.88-4.05 191.88-9.45L191.88-9.45Q191.88-10.4 191.88-11.5L191.88-11.5 192.08-21.45 189.38-21.45 189.28-21.55Q189.28-22.35 189.43-22.65L189.43-22.65Q193.63-25.4 194.93-28.35L194.93-28.35Q195.53-28.5 196.33-28.5L196.33-28.5 196.53-28.4Q196.03-25.4 195.93-23.55L195.93-23.55 202.93-23.8 203.13-23.6Q202.78-22.7 202.48-21.25L202.48-21.25Q199.93-21.4 195.78-21.4L195.78-21.4 195.58-11.5Q195.58-10.6 195.58-9.75ZM216.48 0.75Q212.13 0.75 209.33-2.18 206.53-5.1 206.53-9.85 206.53-14.6 209.4-18.82 212.28-23.05 216.98-24.25L216.98-24.25Q221.63-24.25 224.03-21.55 226.43-18.85 226.43-14.1 226.43-9.35 223.63-5.15 220.83-0.95 216.48 0.75L216.48 0.75ZM215.63-21.15L215.63-21.15Q213.53-21.15 212.18-19.95L212.18-19.95Q210.53-16.8 210.53-12.7 210.53-8.6 212.38-5.48 214.23-2.35 217.33-2.35L217.33-2.35Q219.43-2.35 220.83-3.6L220.83-3.6Q222.43-6.65 222.43-11.03 222.43-15.4 220.75-18.28 219.08-21.15 215.63-21.15ZM246.17-9.75L246.17-9.75Q246.17-2.85 247.67-2.85L247.67-2.85Q250.42-2.85 253.37-5.5L253.37-5.5 253.87-5Q250.97-0.95 246.82 0.75L246.82 0.75Q243.97 0.75 243.17-1.85L243.17-1.85Q242.47-4.05 242.47-9.45L242.47-9.45Q242.47-10.4 242.47-11.5L242.47-11.5 242.67-21.45 239.97-21.45 239.87-21.55Q239.87-22.35 240.02-22.65L240.02-22.65Q244.22-25.4 245.52-28.35L245.52-28.35Q246.12-28.5 246.92-28.5L246.92-28.5 247.12-28.4Q246.62-25.4 246.52-23.55L246.52-23.55 253.52-23.8 253.72-23.6Q253.37-22.7 253.07-21.25L253.07-21.25Q250.52-21.4 246.37-21.4L246.37-21.4 246.17-11.5Q246.17-10.6 246.17-9.75ZM274.12-14.55L274.12-14.55Q274.12-20.15 271.82-20.15L271.82-20.15Q269.87-20.15 267.22-17.7 264.57-15.25 263.67-13.15L263.67-13.15Q263.67-5.9 264.22-1.5L264.22-1.5Q265.57-1.2 267.37-0.55L267.37-0.55 267.27 0.4Q264.47 0 261.97 0 259.47 0 256.92 0.3L256.92 0.3 256.77-0.65Q258.27-1.3 259.72-1.65L259.72-1.65Q260.17-5.05 260.17-9.5L260.17-9.5 260.17-18.8Q260.17-31.95 258.97-36.7L258.97-36.7 260.02-37Q260.47-35.4 261.17-34.35L261.17-34.35Q263.92-34.8 266.52-35.55L266.52-35.55 266.77-34.65Q265.82-33.9 264.42-33.2L264.42-33.2Q263.67-29.1 263.67-16.25L263.67-16.25 263.87-16.2Q265.57-18.55 268.3-21.03 271.02-23.5 273.22-24.25L273.22-24.25Q276.27-24.25 277.17-21.5L277.17-21.5Q277.77-19.55 277.77-16.7L277.77-16.7Q277.77-16.25 277.77-15.7L277.77-15.7 277.52-1.65Q278.72-1.25 280.22-1.25L280.22-1.25 280.22-0.2Q277.02-0.05 273.47 0.75L273.47 0.75 273.12 0.55Q273.92-4.3 274.07-13.45L274.07-13.45Q274.12-13.95 274.12-14.55ZM293.87-2.85L293.87-2.85Q297.02-2.85 300.02-5.5L300.02-5.5 300.57-5Q297.72-1.1 293.27 0.75L293.27 0.75Q288.87 0.75 286.67-2 284.47-4.75 284.47-9.65 284.47-14.55 287.22-18.78 289.97-23 294.57-24.25L294.57-24.25Q297.92-24.25 299.27-22.93 300.62-21.6 300.62-18.25L300.62-18.25Q300.62-16.35 300.12-15L300.12-15Q301.17-14.6 302.57-14.6L302.57-14.6 302.52-13.55Q302.22-13.55 301.87-13.55L301.87-13.55Q296.27-13.55 288.47-11.9L288.47-11.9Q288.47-5.25 291.07-3.6L291.07-3.6Q292.17-2.85 293.87-2.85ZM296.62-15.25Q296.62-18.55 295.99-19.85 295.37-21.15 293.37-21.15 291.37-21.15 289.92-19.95L289.92-19.95Q288.57-17.15 288.47-13.2L288.47-13.2Q292.57-14.55 296.62-15.25L296.62-15.25ZM331.51-14.55L331.51-14.55Q331.51-20.15 329.21-20.15L329.21-20.15Q327.26-20.15 324.61-17.7 321.96-15.25 321.06-13.15L321.06-13.15Q321.06-5.9 321.61-1.5L321.61-1.5Q322.96-1.2 324.76-0.55L324.76-0.55 324.66 0.4Q321.86 0 319.36 0 316.86 0 314.31 0.3L314.31 0.3 314.16-0.65Q315.66-1.3 317.11-1.65L317.11-1.65Q317.56-5.05 317.56-9.5L317.56-9.5 317.56-18.8Q317.56-31.95 316.36-36.7L316.36-36.7 317.41-37Q317.86-35.4 318.56-34.35L318.56-34.35Q321.31-34.8 323.91-35.55L323.91-35.55 324.16-34.65Q323.21-33.9 321.81-33.2L321.81-33.2Q321.06-29.1 321.06-16.25L321.06-16.25 321.26-16.2Q322.96-18.55 325.69-21.03 328.41-23.5 330.61-24.25L330.61-24.25Q333.66-24.25 334.56-21.5L334.56-21.5Q335.16-19.55 335.16-16.7L335.16-16.7Q335.16-16.25 335.16-15.7L335.16-15.7 334.91-1.65Q336.11-1.25 337.61-1.25L337.61-1.25 337.61-0.2Q334.41-0.05 330.86 0.75L330.86 0.75 330.51 0.55Q331.31-4.3 331.46-13.45L331.46-13.45Q331.51-13.95 331.51-14.55ZM351.26-2.85L351.26-2.85Q354.41-2.85 357.41-5.5L357.41-5.5 357.96-5Q355.11-1.1 350.66 0.75L350.66 0.75Q346.26 0.75 344.06-2 341.86-4.75 341.86-9.65 341.86-14.55 344.61-18.78 347.36-23 351.96-24.25L351.96-24.25Q355.31-24.25 356.66-22.93 358.01-21.6 358.01-18.25L358.01-18.25Q358.01-16.35 357.51-15L357.51-15Q358.56-14.6 359.96-14.6L359.96-14.6 359.91-13.55Q359.61-13.55 359.26-13.55L359.26-13.55Q353.66-13.55 345.86-11.9L345.86-11.9Q345.86-5.25 348.46-3.6L348.46-3.6Q349.56-2.85 351.26-2.85ZM354.01-15.25Q354.01-18.55 353.39-19.85 352.76-21.15 350.76-21.15 348.76-21.15 347.31-19.95L347.31-19.95Q345.96-17.15 345.86-13.2L345.86-13.2Q349.96-14.55 354.01-15.25L354.01-15.25ZM363.16-8.8L363.16-8.8Q363.16-14 365.96-18.32 368.76-22.65 373.46-24.25L373.46-24.25Q376.81-24.25 380.46-23.2L380.46-23.2Q381.16-24.25 381.61-25.85L381.61-25.85 382.66-25.55Q381.56-21.05 381.56-9.65L381.56-9.65Q381.56-4.55 381.91-1.65L381.91-1.65Q383.11-1.25 384.61-1.25L384.61-1.25 384.61-0.2Q381.41-0.05 377.86 0.75L377.86 0.75 377.51 0.55Q378.06-2.9 378.06-7.25L378.06-7.25 377.86-7.3Q376.11-4.8 373.71-2.45 371.31-0.1 369.16 0.75L369.16 0.75Q366.41 0.75 364.78-2.3 363.16-5.35 363.16-8.8ZM367.16-11.05L367.16-11.05Q367.16-8.6 368.03-5.98 368.91-3.35 370.56-3.35L370.56-3.35Q372.31-3.35 374.81-5.85 377.31-8.35 378.06-10.35L378.06-10.35Q378.06-17.8 377.71-19.95L377.71-19.95Q375.06-21.15 372.58-21.15 370.11-21.15 368.81-19.95L368.81-19.95Q367.16-16.15 367.16-11.05ZM408.51-19.75L408.51-19.75Q408.51-15.05 405.86-9.63 403.21-4.2 399.51-0.4L399.51-0.4Q398.16 0.25 396.56 0.75L396.56 0.75Q394.36 0.25 392.56-7.9L392.56-7.9Q391.81-11.45 391.11-15.78 390.41-20.1 389.96-21.8L389.96-21.8Q388.76-22.2 387.26-22.2L387.26-22.2 387.26-23.25Q390.61-23.4 394.36-24.25L394.36-24.25 394.71-24.05Q394.31-22.65 394.31-20.93 394.31-19.2 395.03-14.83 395.76-10.45 396.63-7.13 397.51-3.8 397.98-3.05 398.46-2.3 399.01-2.3L399.01-2.3Q401.86-5.8 403.18-9.28 404.51-12.75 404.51-17.1L404.51-17.1Q404.51-19.6 403.46-21.7L403.46-21.7Q402.01-22.15 400.66-22.15L400.66-22.15 400.71-23.2Q405.81-23.4 410.31-24.55L410.31-24.55 410.51-23.65Q409.86-23.15 408.11-22.25L408.11-22.25Q408.51-20.95 408.51-19.75ZM422.2-2.85L422.2-2.85Q425.35-2.85 428.35-5.5L428.35-5.5 428.9-5Q426.05-1.1 421.6 0.75L421.6 0.75Q417.2 0.75 415-2 412.8-4.75 412.8-9.65 412.8-14.55 415.55-18.78 418.3-23 422.9-24.25L422.9-24.25Q426.25-24.25 427.6-22.93 428.95-21.6 428.95-18.25L428.95-18.25Q428.95-16.35 428.45-15L428.45-15Q429.5-14.6 430.9-14.6L430.9-14.6 430.85-13.55Q430.55-13.55 430.2-13.55L430.2-13.55Q424.6-13.55 416.8-11.9L416.8-11.9Q416.8-5.25 419.4-3.6L419.4-3.6Q420.5-2.85 422.2-2.85ZM424.95-15.25Q424.95-18.55 424.33-19.85 423.7-21.15 421.7-21.15 419.7-21.15 418.25-19.95L418.25-19.95Q416.9-17.15 416.8-13.2L416.8-13.2Q420.9-14.55 424.95-15.25L424.95-15.25ZM450.85-14.55L450.85-14.55Q450.85-20.15 448.55-20.15L448.55-20.15Q446.6-20.15 443.95-17.7 441.3-15.25 440.4-13.15L440.4-13.15Q440.4-5.9 440.95-1.5L440.95-1.5Q442.3-1.2 444.1-0.55L444.1-0.55 444 0.4Q441.2 0 438.7 0 436.2 0 433.65 0.3L433.65 0.3 433.5-0.65Q435-1.3 436.45-1.65L436.45-1.65Q436.9-5.05 436.9-9.5L436.9-9.5 436.9-13.7Q436.9-18.3 436.55-21.85L436.55-21.85Q435.35-22.25 433.85-22.25L433.85-22.25 433.85-23.3Q437.05-23.45 440.6-24.25L440.6-24.25 440.95-24.05Q440.4-20.6 440.4-16.25L440.4-16.25 440.6-16.2Q442.3-18.55 445.03-21.03 447.75-23.5 449.95-24.25L449.95-24.25Q453-24.25 453.9-21.5L453.9-21.5Q454.5-19.55 454.5-16.7L454.5-16.7Q454.5-16.25 454.5-15.7L454.5-15.7 454.25-1.65Q455.7-1.3 457.2-0.65L457.2-0.65 457.05 0.3Q454.65 0 452.98 0 451.3 0 449.8 0.1L449.8 0.1 449.8-0.6Q450.6-4.5 450.8-13.45L450.8-13.45Q450.85-13.95 450.85-14.55ZM480.15 0.75Q475.8 0.75 473-2.18 470.2-5.1 470.2-9.85 470.2-14.6 473.07-18.82 475.95-23.05 480.65-24.25L480.65-24.25Q485.3-24.25 487.7-21.55 490.1-18.85 490.1-14.1 490.1-9.35 487.3-5.15 484.5-0.95 480.15 0.75L480.15 0.75ZM479.3-21.15L479.3-21.15Q477.2-21.15 475.85-19.95L475.85-19.95Q474.2-16.8 474.2-12.7 474.2-8.6 476.05-5.48 477.9-2.35 481-2.35L481-2.35Q483.1-2.35 484.5-3.6L484.5-3.6Q486.1-6.65 486.1-11.03 486.1-15.4 484.42-18.28 482.75-21.15 479.3-21.15ZM511.59-14.55L511.59-14.55Q511.59-20.15 509.29-20.15L509.29-20.15Q507.34-20.15 504.69-17.7 502.04-15.25 501.14-13.15L501.14-13.15Q501.14-5.9 501.69-1.5L501.69-1.5Q503.04-1.2 504.84-0.55L504.84-0.55 504.74 0.4Q501.94 0 499.44 0 496.94 0 494.39 0.3L494.39 0.3 494.24-0.65Q495.74-1.3 497.19-1.65L497.19-1.65Q497.64-5.05 497.64-9.5L497.64-9.5 497.64-13.7Q497.64-18.3 497.29-21.85L497.29-21.85Q496.09-22.25 494.59-22.25L494.59-22.25 494.59-23.3Q497.79-23.45 501.34-24.25L501.34-24.25 501.69-24.05Q501.14-20.6 501.14-16.25L501.14-16.25 501.34-16.2Q503.04-18.55 505.77-21.03 508.49-23.5 510.69-24.25L510.69-24.25Q513.74-24.25 514.64-21.5L514.64-21.5Q515.24-19.55 515.24-16.7L515.24-16.7Q515.24-16.25 515.24-15.7L515.24-15.7 514.99-1.65Q516.44-1.3 517.94-0.65L517.94-0.65 517.79 0.3Q515.39 0 513.72 0 512.04 0 510.54 0.1L510.54 0.1 510.54-0.6Q511.34-4.5 511.54-13.45L511.54-13.45Q511.59-13.95 511.59-14.55ZM540.59-2.85L540.59-2.85Q543.74-2.85 546.74-5.5L546.74-5.5 547.29-5Q544.44-1.1 539.99 0.75L539.99 0.75Q535.59 0.75 533.39-2 531.19-4.75 531.19-9.65 531.19-14.55 533.94-18.78 536.69-23 541.29-24.25L541.29-24.25Q544.64-24.25 545.99-22.93 547.34-21.6 547.34-18.25L547.34-18.25Q547.34-16.35 546.84-15L546.84-15Q547.89-14.6 549.29-14.6L549.29-14.6 549.24-13.55Q548.94-13.55 548.59-13.55L548.59-13.55Q542.99-13.55 535.19-11.9L535.19-11.9Q535.19-5.25 537.79-3.6L537.79-3.6Q538.89-2.85 540.59-2.85ZM543.34-15.25Q543.34-18.55 542.71-19.85 542.09-21.15 540.09-21.15 538.09-21.15 536.64-19.95L536.64-19.95Q535.29-17.15 535.19-13.2L535.19-13.2Q539.29-14.55 543.34-15.25L543.34-15.25ZM552.48-8.8L552.48-8.8Q552.48-14 555.28-18.32 558.08-22.65 562.78-24.25L562.78-24.25Q566.13-24.25 569.78-23.2L569.78-23.2Q570.48-24.25 570.93-25.85L570.93-25.85 571.98-25.55Q570.88-21.05 570.88-9.65L570.88-9.65Q570.88-4.55 571.23-1.65L571.23-1.65Q572.43-1.25 573.93-1.25L573.93-1.25 573.93-0.2Q570.73-0.05 567.18 0.75L567.18 0.75 566.83 0.55Q567.38-2.9 567.38-7.25L567.38-7.25 567.18-7.3Q565.43-4.8 563.03-2.45 560.63-0.1 558.48 0.75L558.48 0.75Q555.73 0.75 554.11-2.3 552.48-5.35 552.48-8.8ZM556.48-11.05L556.48-11.05Q556.48-8.6 557.36-5.98 558.23-3.35 559.88-3.35L559.88-3.35Q561.63-3.35 564.13-5.85 566.63-8.35 567.38-10.35L567.38-10.35Q567.38-17.8 567.03-19.95L567.03-19.95Q564.38-21.15 561.91-21.15 559.43-21.15 558.13-19.95L558.13-19.95Q556.48-16.15 556.48-11.05ZM589.23-0.55L589.13 0.4Q586.58 0 583.58 0 580.58 0 577.73 0.3L577.73 0.3 577.58-0.65Q579.08-1.3 580.53-1.65L580.53-1.65Q580.98-5.05 580.98-9.5L580.98-9.5 580.98-13.7Q580.98-18.3 580.63-21.85L580.63-21.85Q579.43-22.25 577.93-22.25L577.93-22.25 577.93-23.3Q581.13-23.45 584.68-24.25L584.68-24.25 585.03-24.05Q584.48-20.6 584.48-16.25L584.48-16.25 584.68-16.2Q585.38-18.2 587.26-20.83 589.13-23.45 590.73-24.25L590.73-24.25Q592.98-24.25 595.13-23.45L595.13-23.45 595.13-22.75Q593.23-20.35 592.98-16.5L592.98-16.5 591.88-16.5Q591.88-18.45 591.78-19.55L591.78-19.55Q591.13-20.05 590.08-20.05L590.08-20.05Q588.58-20.05 586.91-17.68 585.23-15.3 584.48-13.15L584.48-13.15Q584.48-5.9 585.03-1.5L585.03-1.5Q587.53-1.15 589.23-0.55L589.23-0.55ZM603.23-9.75L603.23-9.75Q603.23-2.85 604.73-2.85L604.73-2.85Q607.48-2.85 610.43-5.5L610.43-5.5 610.93-5Q608.03-0.95 603.88 0.75L603.88 0.75Q601.03 0.75 600.23-1.85L600.23-1.85Q599.53-4.05 599.53-9.45L599.53-9.45Q599.53-10.4 599.53-11.5L599.53-11.5 599.73-21.45 597.03-21.45 596.93-21.55Q596.93-22.35 597.08-22.65L597.08-22.65Q601.28-25.4 602.58-28.35L602.58-28.35Q603.18-28.5 603.98-28.5L603.98-28.5 604.18-28.4Q603.68-25.4 603.58-23.55L603.58-23.55 610.58-23.8 610.78-23.6Q610.43-22.7 610.13-21.25L610.13-21.25Q607.58-21.4 603.43-21.4L603.43-21.4 603.23-11.5Q603.23-10.6 603.23-9.75ZM631.18-14.55L631.18-14.55Q631.18-20.15 628.88-20.15L628.88-20.15Q626.93-20.15 624.28-17.7 621.63-15.25 620.73-13.15L620.73-13.15Q620.73-5.9 621.28-1.5L621.28-1.5Q622.63-1.2 624.43-0.55L624.43-0.55 624.33 0.4Q621.53 0 619.03 0 616.53 0 613.98 0.3L613.98 0.3 613.83-0.65Q615.33-1.3 616.78-1.65L616.78-1.65Q617.23-5.05 617.23-9.5L617.23-9.5 617.23-18.8Q617.23-31.95 616.03-36.7L616.03-36.7 617.08-37Q617.53-35.4 618.23-34.35L618.23-34.35Q620.98-34.8 623.58-35.55L623.58-35.55 623.83-34.65Q622.88-33.9 621.48-33.2L621.48-33.2Q620.73-29.1 620.73-16.25L620.73-16.25 620.93-16.2Q622.63-18.55 625.35-21.03 628.08-23.5 630.28-24.25L630.28-24.25Q633.33-24.25 634.23-21.5L634.23-21.5Q634.83-19.55 634.83-16.7L634.83-16.7Q634.83-16.25 634.83-15.7L634.83-15.7 634.58-1.65Q635.78-1.25 637.28-1.25L637.28-1.25 637.28-0.2Q634.08-0.05 630.53 0.75L630.53 0.75 630.18 0.55Q630.98-4.3 631.13-13.45L631.13-13.45Q631.18-13.95 631.18-14.55Z" opacity="1" transform="matrix(1,0,0,1,0,0)" fill="#fbfbfb" class="slogan-text-1" data-fill-palette-color="secondary" id="text-1"></path></svg></g></svg></g></svg></g></svg></g><g><svg viewBox="0 0 245.65351679999992 178.96141947169806" height="178.96141947169806" width="245.65351679999992"><g><svg xmlns="http://www.w3.org/2000/svg" xmlns:xlink="http://www.w3.org/1999/xlink" version="1.1" x="0" y="0" viewBox="2.4 15.2 95.39999999999999 69.5" enable-background="new 0 0 100 100" xml:space="preserve" height="178.96141947169806" width="245.65351679999992" class="icon-icon-0" data-fill-palette-color="accent" id="icon-0"><g fill="#2f76db" data-fill-palette-color="accent"><path d="M2.4 40.4L2.6 40.2 18.2 24.6 18.4 24.4 29.3 35.3C29.5 34 30 33 31 32.2S33.1 31.1 34.3 31.1C35.4 31.2 36.4 31.6 37.2 32.4S38.5 34.1 38.7 35.2L46.9 27 55.7 35.8 55.9 35.6 76.1 15.4 76.3 15.2 76.5 15.4 97.2 36.1 97.4 36.3 96.8 36.9 87.5 27.6 82 33.1 76.4 27.5 70.8 33.1 65.3 27.6 56.4 36.5S56.5 36.6 56.6 36.6L67.3 47.3C67.4 47.4 67.5 47.5 67.7 47.4 68.8 47.4 69.9 47.3 70.9 47.3 76.6 47.3 82 48.6 87.1 51 91 52.9 94.5 55.3 97.6 58.4 97.7 58.5 97.7 58.5 97.8 58.5L97.2 59.1C89.6 52 80.8 48.2 70.5 48.2S51.3 52 43.9 59.2L43.8 59.1 43.3 58.6C47.3 54.4 55.1 48.8 66.1 47.6L66.2 47.5C62.4 43.8 58.7 40.1 54.9 36.3L50.9 40.3 46.9 36.3C45.6 37.7 44.2 39 42.9 40.3L38.8 36.2C38.7 36.3 38.6 36.5 38.6 36.6 38.5 37.2 38.2 37.7 38 38.3 37.1 40.1 36.3 42 35.4 43.8 35 44.7 33.9 45 33.1 44.4 32.9 44.2 32.7 44 32.6 43.8 32.4 43.5 32.3 43.2 32.2 43L27.3 47.9C28.3 48.6 29.2 49.3 30.1 50.2L29.5 50.8C25.9 47.3 21.5 45.4 16.3 45.4 11.2 45.4 6.8 47.3 3 50.9L2.4 50.3 2.6 50.1C4.2 48.6 6 47.3 8 46.4 11.5 44.8 15.2 44.2 19 44.8 21.6 45.2 24 46 26.3 47.4 26.4 47.5 26.5 47.5 26.6 47.4L31.6 42.4C31.7 42.3 31.7 42.2 31.7 42.1L30.2 38.8C29.9 38.1 29.5 37.5 29.4 36.8 29.4 36.7 29.3 36.7 29.3 36.6L26.7 34S26.6 33.9 26.5 33.9L22.5 37.9 18.5 33.9 14.5 37.9 10.5 33.9C7.9 36.2 5.4 38.6 3 41 2.8 40.9 2.6 40.7 2.4 40.4 2.4 40.5 2.4 40.5 2.4 40.4M76.2 16.6L65.5 27.3 70.6 32.4 76.2 26.8 81.8 32.4 86.9 27.3zM10.8 33.3L14.4 36.9 18.4 32.9C19.7 34.3 21.1 35.6 22.4 36.9L26 33.3 18.4 25.7zM42.8 39.6L46.8 35.6 50.8 39.6 54.4 36 46.8 28.4 39.2 36C40.4 37.1 41.6 38.3 42.8 39.6M33.9 32.1C32.9 32.1 31.9 32.5 31.1 33.4 30.2 34.4 29.9 36.1 30.4 37.3L32.5 41.8C32.8 42.4 33.1 43 33.3 43.6 33.4 43.8 33.6 44 33.9 44S34.4 43.9 34.5 43.6C34.5 43.6 34.5 43.5 34.6 43.5 35.4 41.8 36.2 40 37.1 38.3 37.4 37.7 37.7 37.1 37.8 36.4 38 34.1 36.2 32.1 33.9 32.1" fill="#2f76db" data-fill-palette-color="accent"></path><path d="M11.3 84.7C10.9 84.6 10.4 84.5 10 84.3 8.9 83.8 8.1 82.9 7.8 81.7 7.8 81.5 7.7 81.5 7.5 81.5 6.7 81.5 6 81.5 5.2 81.4 4.2 81.3 3.4 80.8 2.9 79.9 2.7 79.6 2.6 79.2 2.6 78.8V66.2C2.6 64.9 3.1 63.9 4 63 5.2 61.9 6.6 61.3 8.1 61.1H35.6C35.3 60.8 35.1 60.5 34.9 60.2 35 60.1 35.2 60 35.3 59.9 35.6 60.2 35.9 60.6 36.2 60.9 36.3 61 36.4 61.1 36.6 61.1H50.4C52.5 61.1 54.3 61.8 55.6 63.5 56.2 64.3 56.5 65.2 56.5 66.2V78.5C56.5 79.8 55.9 80.6 54.8 81.1 54.2 81.4 53.6 81.5 53 81.5H49C48.8 81.9 48.7 82.3 48.5 82.6 47.8 83.7 46.8 84.4 45.5 84.5H44.6C42.9 84.2 41.8 83.3 41.2 81.6 41.1 81.4 41.1 81.4 40.9 81.4H15.5V81.6C15 83.1 14.1 84 12.6 84.4 12.4 84.4 12.2 84.5 12.1 84.5 11.8 84.7 11.5 84.7 11.3 84.7M49.1 80.7H53.2C53.7 80.7 54.2 80.6 54.6 80.4 55.4 80.1 55.8 79.5 55.8 78.6V76.2H50.4V66.1H55.9C55.9 65.8 55.8 65.6 55.8 65.3H3.9S3.8 65.3 3.8 65.4C3.8 65.6 3.7 65.8 3.7 66.1H7.7V73.5H3.7V78.8C3.7 79 3.8 79.2 3.8 79.4 4.1 80.1 4.7 80.4 5.4 80.6 6.2 80.8 7 80.7 7.8 80.7 7.8 80.7 7.9 80.6 7.9 80.5 7.8 80.3 7.9 80 8 79.7 8.7 77.9 10.2 77.1 12.2 77.2 13.8 77.3 15.2 78.7 15.6 80.4 15.6 80.6 15.6 80.7 15.9 80.7H41.2C41.4 80.7 41.4 80.7 41.5 80.5 41.7 78.9 43 77.6 44.7 77.2 46.2 76.9 47.9 77.6 48.7 79 48.9 79.5 49.1 80.1 49.1 80.7M3.7 65H55.5V64.9C55.5 64.8 55.4 64.8 55.4 64.7 55.1 64.1 54.7 63.7 54.2 63.3 53.1 62.4 51.7 62 50.3 62H9.2C8.6 62 8 62.1 7.4 62.2 6.1 62.5 5 63.1 4.2 64.2 4 64.4 3.9 64.7 3.7 65M50.9 66.7V75.7H55.8V66.7zM11.7 78C11.3 78.1 10.9 78.1 10.6 78.3 9.6 78.7 8.9 79.4 8.8 80.4 8.6 81.8 9.4 83.1 10.8 83.5 12.1 84 13.6 83.4 14.3 82.3 14.7 81.6 14.9 80.9 14.7 80.1 14.1 78.9 13 78.1 11.7 78M48.2 80.7C48.1 80.4 48.1 80 48 79.8 47.2 78.1 45 77.6 43.5 78.7 42.7 79.3 42.2 80 42.3 81.1 42.4 82.7 43.8 83.8 45.5 83.8 46.9 83.6 48.1 82.3 48.2 80.7M3.5 73H7V66.7H3.5z" fill="#2f76db" data-fill-palette-color="accent"></path><path d="M65.8 55C66.1 56.3 65.9 57.1 65.1 57.6S63.5 57.9 62.6 57.2L62 57.8 61.6 57.4C61.8 57.2 62 57 62.2 56.9 62.3 56.8 62.3 56.7 62.3 56.6 62.1 55.8 62.4 54.9 63.1 54.4S64.7 54 65.4 54.5C65.5 54.6 65.6 54.6 65.7 54.5 66.2 54.3 66.6 54.1 67.1 53.9 67.2 54.1 67.2 54.2 67.3 54.4 66.7 54.6 66.2 54.8 65.8 55M64.1 57.3C64.9 57.3 65.5 56.7 65.5 55.9S64.9 54.5 64.1 54.5 62.7 55.1 62.7 55.9 63.3 57.3 64.1 57.3" fill="#2f76db" data-fill-palette-color="accent"></path><path d="M85.2 76.9C84.1 76.9 83.3 76.1 83.3 75S84.1 73.1 85.2 73.1 87.1 74 87.1 75C87.2 76.1 86.3 77 85.2 76.9M86.6 75C86.6 74.2 86 73.6 85.2 73.6 84.5 73.6 83.8 74.2 83.8 75S84.4 76.4 85.2 76.4 86.6 75.8 86.6 75" fill="#2f76db" data-fill-palette-color="accent"></path><path d="M81.1 56.2C81.2 56.1 81.3 55.9 81.4 55.8 82 56.2 82.5 56.7 83.1 57.1 83 57.3 82.9 57.4 82.7 57.5 82.2 57.1 81.7 56.7 81.1 56.2" fill="#2f76db" data-fill-palette-color="accent"></path><path d="M84.2 59C84.3 58.9 84.4 58.8 84.6 58.7 85 59.3 85.5 59.9 85.9 60.4 85.7 60.5 85.6 60.6 85.5 60.7 85.1 60.1 84.7 59.6 84.2 59" fill="#2f76db" data-fill-palette-color="accent"></path><path d="M86.5 62.5C86.6 62.4 86.8 62.4 87 62.3 87.2 63 87.5 63.7 87.7 64.3 87.5 64.4 87.3 64.4 87.2 64.4 86.9 63.8 86.7 63.2 86.5 62.5" fill="#2f76db" data-fill-palette-color="accent"></path><path d="M87.2 70.7C87.4 70.7 87.5 70.8 87.7 70.8 87.5 71.5 87.3 72.2 87 72.9 86.8 72.8 86.7 72.8 86.5 72.7 86.7 72 87 71.3 87.2 70.7" fill="#2f76db" data-fill-palette-color="accent"></path><path d="M77.4 54.3C77.5 54.1 77.5 54 77.6 53.8 78.3 54.1 78.9 54.4 79.6 54.7 79.5 54.9 79.4 55 79.4 55.2 78.7 54.8 78.1 54.6 77.4 54.3" fill="#2f76db" data-fill-palette-color="accent"></path><path d="M87.5 66.5H88V68.7H87.5z" fill="#2f76db" data-fill-palette-color="accent"></path><path d="M75.5 53.2C75.5 53.4 75.4 53.6 75.4 53.7L73.3 53.4V52.9C74.1 53 74.8 53.1 75.5 53.2" fill="#2f76db" data-fill-palette-color="accent"></path><path d="M69.2 53.8C69.2 53.6 69.1 53.5 69.1 53.3L71.2 53C71.2 53.2 71.2 53.4 71.3 53.5z" fill="#2f76db" data-fill-palette-color="accent"></path><path d="M33.1 44.8C33.3 44.9 33.4 44.9 33.6 45 33.4 45.6 33.2 46.2 33 46.9 32.8 46.9 32.7 46.8 32.5 46.8 32.6 46.1 32.8 45.5 33.1 44.8" fill="#2f76db" data-fill-palette-color="accent"></path><path d="M33 56.7C33.2 56.6 33.3 56.6 33.5 56.5L34.4 58.3C34.3 58.4 34.1 58.5 33.9 58.6 33.6 58 33.3 57.4 33 56.7" fill="#2f76db" data-fill-palette-color="accent"></path><path d="M56.8 63.2C56.7 63 56.6 62.9 56.5 62.8 57 62.4 57.5 61.9 58 61.5L58.4 61.9C57.9 62.3 57.4 62.8 56.8 63.2" fill="#2f76db" data-fill-palette-color="accent"></path><path d="M32 52.8C32.2 52.8 32.4 52.8 32.5 52.7 32.6 53.4 32.8 54 32.9 54.6 32.7 54.6 32.6 54.7 32.4 54.7 32.2 54.1 32.1 53.5 32 52.8" fill="#2f76db" data-fill-palette-color="accent"></path><path d="M32 48.8C32.2 48.8 32.4 48.8 32.5 48.9 32.5 49.6 32.4 50.2 32.4 50.9H31.9C31.9 50.1 31.9 49.4 32 48.8" fill="#2f76db" data-fill-palette-color="accent"></path><path d="M60.5 59.2C60.2 59.6 60 59.9 59.7 60.3 59.6 60.2 59.4 60.1 59.3 60 59.6 59.6 59.8 59.3 60.1 58.9 60.2 59 60.4 59.1 60.5 59.2" fill="#2f76db" data-fill-palette-color="accent"></path><path d="M33.9 38.4C32.5 38.4 31.3 37.3 31.3 35.8 31.3 34.4 32.4 33.2 33.9 33.3 35.3 33.3 36.5 34.4 36.5 35.9 36.5 37.3 35.4 38.4 33.9 38.4M32.2 35.9C32.2 36.8 32.9 37.6 33.9 37.6 34.8 37.6 35.6 36.9 35.6 35.9 35.6 35 34.8 34.2 33.9 34.2S32.2 34.9 32.2 35.9" fill="#2f76db" data-fill-palette-color="accent"></path><path d="M25 66.2H32.9V72.9H25zM32.5 72.4V66.7H25.6V72.4z" fill="#2f76db" data-fill-palette-color="accent"></path><path d="M24.5 72.9H16.6V66.2H24.5zM24 72.4V66.7H17.1V72.4z" fill="#2f76db" data-fill-palette-color="accent"></path><path d="M16 72.9H8.1V66.2H16zM8.6 66.7V72.4H15.5V66.7z" fill="#2f76db" data-fill-palette-color="accent"></path><path d="M41.9 66.2H49.8V72.9H41.9zM42.4 72.4H49.3V66.7H42.4z" fill="#2f76db" data-fill-palette-color="accent"></path><path d="M33.4 72.9V66.2H41.3V72.9zM34 66.7V72.4H40.9V66.7z" fill="#2f76db" data-fill-palette-color="accent"></path></g></svg></g></svg></g></svg></g><defs></defs></svg><rect width="395.5199999999999" height="107.50030416509271" fill="none" stroke="none" visibility="hidden"></rect></g></svg></g></svg>